<svg id="Group_1060" data-name="Group 1060" xmlns="http://www.w3.org/2000/svg" xmlns:xlink="http://www.w3.org/1999/xlink" width="383.402" height="396.283" viewBox="0 0 383.402 396.283">
  <defs>
    <clipPath id="clip-path">
      <rect id="Rectangle_1405" data-name="Rectangle 1405" width="383.402" height="396.283" fill="none"/>
    </clipPath>
    <clipPath id="clip-path-3">
      <rect id="Rectangle_1394" data-name="Rectangle 1394" width="32.681" height="25.258" transform="translate(303.851 279.348)" fill="none"/>
    </clipPath>
    <clipPath id="clip-path-4">
      <rect id="Rectangle_1395" data-name="Rectangle 1395" width="31.78" height="25.258" transform="translate(266.966 257.537)" fill="none"/>
    </clipPath>
    <clipPath id="clip-path-5">
      <rect id="Rectangle_1396" data-name="Rectangle 1396" width="31.779" height="25.258" transform="translate(229.381 235.584)" fill="none"/>
    </clipPath>
    <clipPath id="clip-path-6">
      <rect id="Rectangle_1397" data-name="Rectangle 1397" width="31.78" height="25.259" transform="translate(191.394 213.903)" fill="none"/>
    </clipPath>
    <clipPath id="clip-path-7">
      <path id="Path_1009" data-name="Path 1009" d="M94.951,91.779V232.226L147.2,201.888V61.442Z" fill="none"/>
    </clipPath>
    <clipPath id="clip-path-9">
      <rect id="Rectangle_1399" data-name="Rectangle 1399" width="54.939" height="60.27" transform="translate(12.203 207.41)" fill="none"/>
    </clipPath>
    <clipPath id="clip-path-10">
      <rect id="Rectangle_1400" data-name="Rectangle 1400" width="25.615" height="14.829" transform="translate(75.612 238.906)" fill="none"/>
    </clipPath>
    <clipPath id="clip-path-11">
      <rect id="Rectangle_1401" data-name="Rectangle 1401" width="3.662" height="5.823" transform="translate(39.727 203.815)" fill="none"/>
    </clipPath>
    <clipPath id="clip-path-12">
      <rect id="Rectangle_1402" data-name="Rectangle 1402" width="6.376" height="10.137" transform="translate(72.735 153.936)" fill="none"/>
    </clipPath>
    <clipPath id="clip-path-13">
      <rect id="Rectangle_1403" data-name="Rectangle 1403" width="54.768" height="63.361" transform="translate(13.062 144.446)" fill="none"/>
    </clipPath>
  </defs>
  <g id="Group_1059" data-name="Group 1059" clip-path="url(#clip-path)">
    <path id="Path_973" data-name="Path 973" d="M2.308,285.68,191.086,394.613,379.954,285.57,191.086,176.527Z" fill="#4c7b92"/>
    <g id="Group_1039" data-name="Group 1039">
      <g id="Group_1038" data-name="Group 1038" clip-path="url(#clip-path)">
        <g id="Group_1028" data-name="Group 1028" opacity="0.3" style="mix-blend-mode: color-burn;isolation: isolate">
          <g id="Group_1027" data-name="Group 1027">
            <g id="Group_1026" data-name="Group 1026" clip-path="url(#clip-path-3)">
              <path id="Path_974" data-name="Path 974" d="M303.851,285.7l32.681,18.91V291.839l-21.587-12.491Z" fill="#4894be"/>
            </g>
          </g>
        </g>
        <g id="Group_1031" data-name="Group 1031" opacity="0.3" style="mix-blend-mode: color-burn;isolation: isolate">
          <g id="Group_1030" data-name="Group 1030">
            <g id="Group_1029" data-name="Group 1029" clip-path="url(#clip-path-4)">
              <path id="Path_975" data-name="Path 975" d="M266.966,264.407l31.78,18.388V270.027l-21.588-12.491-10.192,5.833Z" fill="#4894be"/>
            </g>
          </g>
        </g>
        <g id="Group_1034" data-name="Group 1034" opacity="0.3" style="mix-blend-mode: color-burn;isolation: isolate">
          <g id="Group_1033" data-name="Group 1033">
            <g id="Group_1032" data-name="Group 1032" clip-path="url(#clip-path-5)">
              <path id="Path_976" data-name="Path 976" d="M229.381,242.454l31.779,18.388V248.074l-21.587-12.491-10.192,5.833Z" fill="#4894be"/>
            </g>
          </g>
        </g>
        <g id="Group_1037" data-name="Group 1037" opacity="0.3" style="mix-blend-mode: color-burn;isolation: isolate">
          <g id="Group_1036" data-name="Group 1036">
            <g id="Group_1035" data-name="Group 1035" clip-path="url(#clip-path-6)">
              <path id="Path_977" data-name="Path 977" d="M191.394,220.774l31.78,18.388V226.394L201.586,213.9l-10.192,5.833Z" fill="#4894be"/>
            </g>
          </g>
        </g>
      </g>
    </g>
    <path id="Path_978" data-name="Path 978" d="M154.567,329.636,191.7,308.2l37.139,21.446-37.128,21.436Zm-38.135-22.02,37.128-21.437L190.7,307.626,153.57,329.062Zm76.271,0,37.128-21.437,37.138,21.447-37.128,21.436Zm-38.136-22.011L191.7,264.169l37.139,21.436-37.128,21.436Zm76.282-.011,37.127-21.425L305.1,285.605l-37.117,21.436Zm-152.552,0,37.128-21.436,37.127,21.447-37.127,21.436Zm38.135-22.01,37.128-21.436,37.128,21.436L153.56,285.02Zm76.281,0,37.118-21.436,37.138,21.436L229.841,285.02Zm-38.146-22.02L191.7,220.128l37.128,21.436L191.706,263Zm-.9-43.4,37.026,21.378L153.56,240.979l-37-21.362-1.009.584,37,21.363L115.425,263,78.451,241.653l-1.009.583,36.975,21.348L77.289,285.02,40.342,263.688l-1,.579,36.94,21.338L39.235,306.989l1.009.582,37.045-21.392,37.128,21.437L77.383,329l1.01.582L115.425,308.2l37.137,21.436-37.026,21.382,1,.575,37.027-21.372L190.7,351.657l-37.013,21.374,1,.578,37.02-21.368,36.385,21.007,1.009-.582-36.387-21.009,37.128-21.436,36.388,21.009,1-.579-36.381-21.005L267.976,308.2l36.391,21.01,1.015-.585-36.388-21.009,37.118-21.427L342.5,307.2l1.014-.585L307.12,285.605l36.443-21.046-1-.577-36.44,21.038-37.138-21.436,36.436-21.046-1-.576L267.976,263l-37.127-21.436,36.442-21.041-1.01-.583-36.44,21.039L192.7,219.543,229.152,198.5l-1.009-.583L191.7,218.958l-37.024-21.376Z" fill="#3b4760"/>
    <path id="Path_979" data-name="Path 979" d="M191.023,0V176.46L379.955,285.4V108.935Z" fill="#c8e3f2"/>
    <path id="Path_980" data-name="Path 980" d="M191.163,0,2.231,108.935,2.308,285.68,191.163,176.46Z" fill="#3a7494"/>
    <path id="Path_981" data-name="Path 981" d="M2.231,220.608l.076,65.072L191.162,176.46V111.673Z" fill="#222b38"/>
    <path id="Path_982" data-name="Path 982" d="M188.985,221.153l39.825-23.031V78.834l-39.825,23.032Z" fill="#222b38"/>
    <path id="Path_983" data-name="Path 983" d="M188.985,101.858,228.81,78.827l-3.6-2.075L185.388,99.784Z" fill="#3b4760"/>
    <path id="Path_984" data-name="Path 984" d="M185.387,219.071l3.6,2.083V101.866l-3.6-2.082Z" fill="#606b82"/>
    <path id="Path_985" data-name="Path 985" d="M226.771,242.98,266.6,219.949V100.661l-39.825,23.032Z" fill="#222b38"/>
    <path id="Path_986" data-name="Path 986" d="M226.771,123.684,266.6,100.653,263,98.578l-39.825,23.031Z" fill="#3b4760"/>
    <path id="Path_987" data-name="Path 987" d="M223.174,240.9l3.6,2.083V123.692l-3.6-2.083Z" fill="#606b82"/>
    <path id="Path_988" data-name="Path 988" d="M264.557,264.806l39.825-23.031V122.487l-39.825,23.031Z" fill="#222b38"/>
    <path id="Path_989" data-name="Path 989" d="M264.557,145.511l39.825-23.031-3.6-2.075L260.96,143.436Z" fill="#3b4760"/>
    <path id="Path_990" data-name="Path 990" d="M260.96,262.724l3.6,2.083V145.519l-3.6-2.083Z" fill="#606b82"/>
    <path id="Path_991" data-name="Path 991" d="M302.343,286.633,342.168,263.6V144.314l-39.825,23.031Z" fill="#222b38"/>
    <path id="Path_992" data-name="Path 992" d="M302.343,167.337l39.825-23.031-3.6-2.075-39.825,23.032Z" fill="#3b4760"/>
    <path id="Path_993" data-name="Path 993" d="M298.746,284.55l3.6,2.083V167.345l-3.6-2.082Z" fill="#606b82"/>
    <path id="Path_994" data-name="Path 994" d="M340.129,308.459l39.825-23.031V166.14l-39.825,23.032Z" fill="#222b38"/>
    <path id="Path_995" data-name="Path 995" d="M340.129,189.164l39.825-23.031-3.6-2.075L336.532,187.09Z" fill="#3b4760"/>
    <path id="Path_996" data-name="Path 996" d="M336.532,306.377l3.6,2.083V189.172l-3.6-2.082Z" fill="#606b82"/>
    <path id="Path_997" data-name="Path 997" d="M336.532,195.119l-34.187-19.773,1.943-1.118,32.244,18.647Z" fill="#3b4760"/>
    <path id="Path_998" data-name="Path 998" d="M336.532,291.839l-34.189-19.772V175.348l34.189,19.772Z" fill="#4894be"/>
    <path id="Path_999" data-name="Path 999" d="M298.746,173.306l-34.187-19.773,1.943-1.118,32.244,18.648Z" fill="#3b4760"/>
    <path id="Path_1000" data-name="Path 1000" d="M298.746,270.026l-34.189-19.772V153.535l34.189,19.772Z" fill="#4894be"/>
    <path id="Path_1001" data-name="Path 1001" d="M260.96,151.493,226.773,131.72l1.943-1.118L260.96,149.25Z" fill="#3b4760"/>
    <path id="Path_1002" data-name="Path 1002" d="M260.96,248.213l-34.189-19.772V131.722l34.189,19.772Z" fill="#4894be"/>
    <path id="Path_1003" data-name="Path 1003" d="M223.174,129.68l-34.187-19.773,1.943-1.118,32.244,18.647Z" fill="#3b4760"/>
    <path id="Path_1004" data-name="Path 1004" d="M223.174,226.4l-34.189-19.772V109.909l34.189,19.772Z" fill="#4894be"/>
    <path id="Path_1005" data-name="Path 1005" d="M96.981,104.066l.1,126.922,48.041-27.9-.1-126.661Z" fill="#c8e3f2"/>
    <path id="Path_1006" data-name="Path 1006" d="M140.585,82.1,99.658,105.63l.1,121.6,42.628-24.515-.1-121.6Z" fill="#3b4760"/>
    <path id="Path_1007" data-name="Path 1007" d="M140.585,82.1l.1,121.6,1.7.987-.1-123.564Z" fill="#fff"/>
    <g id="Group_1041" data-name="Group 1041">
      <g id="Group_1040" data-name="Group 1040" clip-path="url(#clip-path-7)">
        <path id="Path_1008" data-name="Path 1008" d="M142.388,207.309,99.761,231.821v-1.966l40.926-23.532Z" fill="#907159"/>
      </g>
    </g>
    <path id="Path_1010" data-name="Path 1010" d="M99.76,229.855v-2.622l40.926-23.54,1.7.986L137.743,215.9l-11.137,6.42-9.994-2.67-1.007.585,3.105,6.636-14.747,8.5Z" fill="#4c7b92"/>
    <path id="Path_1011" data-name="Path 1011" d="M314.271,226.051l12.373,7.144V213.536l-12.373-7.143Z" fill="#fff"/>
    <path id="Path_1012" data-name="Path 1012" d="M274.375,202.936l12.373,7.144V190.421l-12.373-7.143Z" fill="#fff"/>
    <path id="Path_1013" data-name="Path 1013" d="M238.733,186.673l12.373,7.144V174.158l-12.373-7.143Z" fill="#fff"/>
    <path id="Path_1014" data-name="Path 1014" d="M198.838,163.558l12.373,7.144V151.043L198.838,143.9Z" fill="#fff"/>
    <path id="Path_1015" data-name="Path 1015" d="M130.691,151.164l-21.553,12.444V129.364l21.553-12.444Z" fill="#e2ecf1"/>
    <path id="Path_1016" data-name="Path 1016" d="M162.814,118.661,151.484,125.2v-18l11.329-6.541Z" fill="#e2ecf1"/>
    <g id="Group_1058" data-name="Group 1058">
      <g id="Group_1057" data-name="Group 1057" clip-path="url(#clip-path)">
        <path id="Path_1017" data-name="Path 1017" d="M292.363,224a3.991,3.991,0,0,0,1.924,3.035c1.062.613,1.924.249,1.924-.814a3.991,3.991,0,0,0-1.924-3.034c-1.063-.614-1.924-.249-1.924.813" fill="#222b38"/>
        <path id="Path_1018" data-name="Path 1018" d="M331.529,245.6a3.989,3.989,0,0,0,1.923,3.035c1.062.614,1.924.25,1.924-.813a3.989,3.989,0,0,0-1.924-3.034c-1.063-.614-1.923-.25-1.923.812" fill="#222b38"/>
        <path id="Path_1019" data-name="Path 1019" d="M116.846,220.362l-.594.244-2.527-1.459,1.008-.585,2.155,1.244Z" fill="#3b4760"/>
        <g id="Group_1044" data-name="Group 1044" opacity="0.3" style="mix-blend-mode: color-burn;isolation: isolate">
          <g id="Group_1043" data-name="Group 1043">
            <g id="Group_1042" data-name="Group 1042" clip-path="url(#clip-path-9)">
              <path id="Path_1020" data-name="Path 1020" d="M12.2,239.132v28.549L67.142,235.96V207.411Z" fill="#4894be"/>
            </g>
          </g>
        </g>
        <g id="Group_1047" data-name="Group 1047" opacity="0.3" style="mix-blend-mode: color-burn;isolation: isolate">
          <g id="Group_1046" data-name="Group 1046">
            <g id="Group_1045" data-name="Group 1045" clip-path="url(#clip-path-10)">
              <path id="Path_1021" data-name="Path 1021" d="M75.612,247.019l11.637,6.716,13.978-8.112L89.59,238.907Z" fill="#4894be"/>
            </g>
          </g>
        </g>
        <g id="Group_1050" data-name="Group 1050" opacity="0.3" style="mix-blend-mode: color-burn;isolation: isolate">
          <g id="Group_1049" data-name="Group 1049">
            <g id="Group_1048" data-name="Group 1048" clip-path="url(#clip-path-11)">
              <path id="Path_1022" data-name="Path 1022" d="M39.727,205.946v3.692l3.662-2.131v-3.692Z" fill="#4894be"/>
            </g>
          </g>
        </g>
        <g id="Group_1053" data-name="Group 1053" opacity="0.3" style="mix-blend-mode: color-burn;isolation: isolate">
          <g id="Group_1052" data-name="Group 1052">
            <g id="Group_1051" data-name="Group 1051" clip-path="url(#clip-path-12)">
              <path id="Path_1023" data-name="Path 1023" d="M72.735,157.646v6.427l6.376-3.71v-6.427Z" fill="#4894be"/>
            </g>
          </g>
        </g>
        <path id="Path_1024" data-name="Path 1024" d="M87.537,204.6v48.055l13.336-7.7V196.9Zm9.706,2.947a.949.949,0,0,1-.3.271c-.2.13-5.285,3.1-5.4,3.115a.183.183,0,0,1-.228-.2A24.69,24.69,0,0,1,91.4,208a.938.938,0,0,1,.3-.27c.2-.131,5.284-3.1,5.4-3.116a.214.214,0,0,1,.187.061,16.6,16.6,0,0,1-.053,2.866" fill="#4dafdb"/>
        <path id="Path_1025" data-name="Path 1025" d="M99.257,194.627l1.3,1.493-13.335,7.7-1.3-1.493Z" fill="#fff"/>
        <path id="Path_1026" data-name="Path 1026" d="M97.3,204.678a16.7,16.7,0,0,1-.054,2.866.921.921,0,0,1-.3.271c-.2.131-5.283,3.1-5.4,3.115a.18.18,0,0,1-.226-.2A24.945,24.945,0,0,1,91.4,208a.949.949,0,0,1,.3-.27c.2-.131,5.284-3.1,5.4-3.115a.217.217,0,0,1,.189.06" fill="#84d9f5"/>
        <path id="Path_1027" data-name="Path 1027" d="M91.506,185.644l-13.372,7.72,3.148,3.622,13.372-7.719Zm-.386,4.221c-.036.108-.161.181-.274.246-.4.227-.645.35-.96.525-.542.3-1.287.752-1.943,1.14-.728.431-1.347.785-2.037,1.179-.482.275-1,.57-1.455.836-.227.132-.439.257-.693.4a.8.8,0,0,1-.448.156.576.576,0,0,1-.3-.169c-.032-.029-.063-.06-.093-.09a4.5,4.5,0,0,1-.372-.445,3.717,3.717,0,0,0-.376-.453,1.109,1.109,0,0,1-.274-.31.329.329,0,0,1-.025-.231c.034-.109.16-.182.274-.246.4-.227.645-.351.96-.526.541-.3,1.286-.751,1.943-1.14.728-.431,1.346-.785,2.036-1.179.483-.275,1-.569,1.456-.835.226-.133.438-.258.692-.4a.8.8,0,0,1,.448-.155.747.747,0,0,1,.4.259,4.356,4.356,0,0,1,.372.444,3.8,3.8,0,0,0,.377.453,1.105,1.105,0,0,1,.273.31.326.326,0,0,1,.026.232" fill="#fff"/>
        <path id="Path_1028" data-name="Path 1028" d="M92.527,197.013a7.718,7.718,0,0,1-.037.809l.032.055-7.262,4.192a.6.6,0,0,0-.1.07.7.7,0,0,0-.077.088.594.594,0,0,0-.057.1.617.617,0,0,0-.037.107.719.719,0,0,0-.018.113v0l-.054.762-1.35.779a.227.227,0,0,1-.212.014c-.071-.049-.051-.189-.04-.3a13.654,13.654,0,0,1,.166-1.687,1.159,1.159,0,0,1,.45-.4c.491-.3,8.233-4.84,8.352-4.849a.255.255,0,0,1,.24.145" fill="#4dafdb"/>
        <path id="Path_1029" data-name="Path 1029" d="M92.49,197.822a7.73,7.73,0,0,0,.037-.809.254.254,0,0,0-.239-.145c-.12.009-7.862,4.548-8.353,4.849a1.151,1.151,0,0,0-.45.4,13.657,13.657,0,0,0-.166,1.686c-.011.115-.031.256.041.305a.228.228,0,0,0,.211-.014l1.35-.779q-.285,4.03-.571,8.063c0,.03,0,.059-.009.088a1.2,1.2,0,0,1-.028.156.916.916,0,0,1-.094.249.615.615,0,0,1-.061.09.484.484,0,0,1-.066.069.688.688,0,0,1-.072.052.721.721,0,0,1-.306.093,1.2,1.2,0,0,1-.63-.116,2.524,2.524,0,0,1-.283-.161l-.554-.371a2.813,2.813,0,0,1-.594-.535,3.8,3.8,0,0,1-.747-1.42,2.3,2.3,0,0,1-.083-.792l.776-10.964L95,190.077l-.467,6.636q-1.007.584-2.014,1.164Z" fill="#84d9f5"/>
        <path id="Path_1030" data-name="Path 1030" d="M91.094,189.633a.326.326,0,0,1,.026.232c-.035.108-.161.181-.274.246-.4.227-.645.35-.96.525-.541.3-1.286.752-1.943,1.14-.728.431-1.347.785-2.036,1.179-.483.275-1,.57-1.456.836-.227.132-.438.257-.693.4a.8.8,0,0,1-.447.156.59.59,0,0,1-.3-.169c-.032-.029-.063-.06-.093-.09a4.485,4.485,0,0,1-.371-.445,3.726,3.726,0,0,0-.377-.453,1.109,1.109,0,0,1-.274-.31.331.331,0,0,1-.025-.232c.035-.108.161-.181.274-.245.4-.227.645-.351.96-.526.541-.3,1.287-.751,1.943-1.14.728-.431,1.346-.785,2.037-1.179.482-.275,1-.57,1.455-.836.227-.132.438-.257.692-.4a.806.806,0,0,1,.448-.155.74.74,0,0,1,.4.259,4.5,4.5,0,0,1,.373.444,3.7,3.7,0,0,0,.376.453,1.09,1.09,0,0,1,.273.31" fill="#4dafdb"/>
        <path id="Path_1031" data-name="Path 1031" d="M86.964,204.6v48.055l-9.659-5.576a.215.215,0,0,1-.119-.166V193.839a.347.347,0,0,1,.031-.155.209.209,0,0,1,.089-.09.218.218,0,0,1,.124-.015.387.387,0,0,1,.147.06.69.69,0,0,1,.143.12l3.147,3.617a.616.616,0,0,1,.068.091.673.673,0,0,1,.083.21.431.431,0,0,1,.008.113l-.776,10.964a2.712,2.712,0,0,0,.1.939,4.488,4.488,0,0,0,.885,1.683,3.322,3.322,0,0,0,.7.634l.555.371a2.133,2.133,0,0,0,.615.291,1.15,1.15,0,0,0,.675,0,1,1,0,0,0,.509-.442,1.514,1.514,0,0,0,.177-.654l.625-8.826a.236.236,0,0,1,.034-.112.141.141,0,0,1,.072-.058.18.18,0,0,1,.1,0,.3.3,0,0,1,.107.048.564.564,0,0,1,.106.1l1.3,1.493a.543.543,0,0,1,.063.086.648.648,0,0,1,.084.2.473.473,0,0,1,.013.106" fill="#fff"/>
        <path id="Path_1032" data-name="Path 1032" d="M101.2,196.381a1.081,1.081,0,0,0-.089-.231c-.02-.037-.042-.074-.065-.109s-.05-.068-.077-.1l-1.3-1.494a.959.959,0,0,0-.181-.162.9.9,0,0,0-.1-.058.636.636,0,0,0-.108-.041.6.6,0,0,0-.112-.022.654.654,0,0,0-.117,0,.639.639,0,0,0-.114.023.614.614,0,0,0-.108.048l-4.019,2.321c.175-2.468.3-4.27.477-6.738a.7.7,0,0,0,0-.151.975.975,0,0,0-.059-.235c-.015-.039-.033-.077-.052-.115a1.189,1.189,0,0,0-.065-.108,1.254,1.254,0,0,0-.076-.1l-3.149-3.622a.9.9,0,0,0-.181-.163.823.823,0,0,0-.1-.058.7.7,0,0,0-.108-.041.61.61,0,0,0-.113-.022.572.572,0,0,0-.117,0,.622.622,0,0,0-.114.023.612.612,0,0,0-.108.048l-13.57,7.834a.611.611,0,0,0-.1.071.816.816,0,0,0-.078.088.655.655,0,0,0-.056.1.551.551,0,0,0-.037.108.718.718,0,0,0-.018.113.551.551,0,0,0,0,.058v.195a.344.344,0,0,1,.031-.155.191.191,0,0,1,.213-.1.358.358,0,0,1,.147.06.661.661,0,0,1,.143.12l3.147,3.617a.567.567,0,0,1,.068.091.673.673,0,0,1,.083.21.431.431,0,0,1,.008.113l-.776,10.964a2.713,2.713,0,0,0,.1.939,4.5,4.5,0,0,0,.885,1.683,3.322,3.322,0,0,0,.7.634l.555.371a2.1,2.1,0,0,0,.615.29,1.142,1.142,0,0,0,.675,0,1,1,0,0,0,.509-.443,1.506,1.506,0,0,0,.177-.653l.625-8.826a.244.244,0,0,1,.034-.113.146.146,0,0,1,.072-.058.17.17,0,0,1,.1,0,.3.3,0,0,1,.107.048.53.53,0,0,1,.106.1l1.3,1.493a.544.544,0,0,1,.063.086.637.637,0,0,1,.084.2.473.473,0,0,1,.013.106v48.055a.444.444,0,0,0,.138.053.708.708,0,0,0,.3,0,.435.435,0,0,0,.138-.053V204.6l13.336-7.7v48.055l.235-.136a.262.262,0,0,0,.081-.067.171.171,0,0,0,.038-.1V196.6a.889.889,0,0,0-.028-.216m-23.065-3.016,13.373-7.721,3.147,3.623-13.371,7.72Zm7.126,8.7a.611.611,0,0,0-.1.071.648.648,0,0,0-.077.088.586.586,0,0,0-.057.1.688.688,0,0,0-.037.108.707.707,0,0,0-.018.112v0l-.054.762q-.285,4.032-.571,8.063c0,.03,0,.06-.009.088a1.191,1.191,0,0,1-.028.157,1.15,1.15,0,0,1-.041.136.98.98,0,0,1-.053.112.595.595,0,0,1-.127.16.559.559,0,0,1-.072.051.721.721,0,0,1-.306.093,1.186,1.186,0,0,1-.63-.116,2.52,2.52,0,0,1-.283-.16l-.554-.371a2.84,2.84,0,0,1-.594-.535,3.811,3.811,0,0,1-.747-1.42,2.306,2.306,0,0,1-.083-.793l.776-10.964L95,190.077l-.467,6.637-2.014,1.163-7.262,4.192m1.959,1.751-1.3-1.493,13.336-7.7,1.3,1.492Z" fill="#c2edfc"/>
        <path id="Path_1033" data-name="Path 1033" d="M12.2,230.818v8.318l21.3,12.3v-7.758a.8.8,0,0,0-.04-.246,1.186,1.186,0,0,0-.251-.435.787.787,0,0,0-.193-.158Z" fill="#fff"/>
        <path id="Path_1034" data-name="Path 1034" d="M12.2,230.818,33.02,242.837l54.939-31.722L67.142,199.1ZM53.127,216.41c0-.112.012-.224.027-.336s.033-.224.058-.336.052-.222.086-.334.07-.22.113-.33.087-.219.137-.329.1-.216.161-.324.118-.215.183-.321c.1-.161.2-.317.31-.474s.229-.31.354-.465.254-.3.391-.453.279-.3.428-.446.3-.289.462-.433c.24-.216.489-.423.752-.63s.534-.407.817-.605c.428-.3.877-.584,1.348-.858.061-.035.122-.071.185-.106.31-.179.631-.351.958-.517s.667-.33,1.011-.487.7-.308,1.06-.452c.241-.1.487-.19.734-.281s.5-.179.755-.263.515-.166.774-.243.529-.153.795-.224.541-.138.813-.2c.182-.041.368-.082.552-.12s.372-.074.559-.108.378-.067.566-.1.382-.056.573-.082.386-.047.578-.067.391-.039.584-.054.394-.028.588-.036.4-.015.592-.018c.13,0,.263,0,.393,0s.264,0,.394.007.263.01.392.019.262.015.392.026.26.024.389.037.257.03.384.049.255.037.381.06.251.046.374.072.246.053.366.084.24.062.357.1c.176.051.351.107.517.168s.331.125.486.2.307.144.45.222l.125.069.121.073c.133.082.259.168.377.256s.229.181.334.276.2.194.285.293c.059.069.114.136.165.205s.1.138.145.209.085.14.123.213.072.143.1.216.059.145.084.22.047.146.066.222.035.148.048.222a3.273,3.273,0,0,1,.041.336,3.449,3.449,0,0,1-.023.673c-.014.112-.033.224-.058.336s-.053.222-.087.334-.071.22-.114.33-.087.219-.138.329-.1.216-.161.323-.118.214-.183.322c-.1.161-.2.316-.312.474s-.228.31-.354.463-.255.3-.392.455-.28.3-.428.444-.3.291-.463.433c-.24.215-.489.424-.752.631s-.535.406-.818.6q-.642.446-1.349.858l-.185.107c-.208.117-.419.233-.635.349-.322.169-.655.335-.994.5s-.69.315-1.044.462c-.237.1-.481.2-.725.29s-.494.184-.744.27-.508.174-.765.254-.522.16-.786.233-.535.146-.8.213c-.18.043-.363.086-.545.127s-.369.08-.554.117-.374.073-.561.105-.379.065-.568.093-.383.056-.574.08-.388.045-.581.062-.391.037-.585.05-.394.024-.589.03-.4.013-.592.013c-.13,0-.263,0-.393,0s-.264,0-.394-.011-.262-.013-.392-.021-.262-.02-.39-.031-.26-.028-.388-.043-.257-.034-.382-.052-.255-.043-.379-.066-.249-.05-.371-.076-.243-.058-.362-.09-.238-.065-.354-.1c-.172-.052-.344-.113-.508-.175s-.324-.132-.476-.2-.3-.148-.44-.23l-.118-.069q-.2-.123-.379-.257a3.784,3.784,0,0,1-.333-.276,3.456,3.456,0,0,1-.288-.293c-.058-.066-.114-.133-.165-.2s-.1-.138-.145-.209-.086-.14-.125-.214-.072-.142-.1-.215-.06-.147-.085-.22-.047-.147-.067-.222-.035-.147-.049-.222a3.208,3.208,0,0,1-.041-.336,3.164,3.164,0,0,1-.006-.337M26.5,231.783c0-.112.013-.222.027-.336s.033-.222.058-.336.053-.222.086-.332.071-.22.113-.332.088-.218.137-.327.1-.218.161-.326.118-.213.182-.321c.1-.16.2-.317.312-.474s.228-.31.353-.463.254-.306.392-.455.279-.3.428-.444.3-.291.461-.435c.24-.214.489-.423.751-.63s.535-.407.818-.6q.642-.447,1.348-.86l.185-.106c.311-.177.631-.351.959-.517s.666-.33,1.01-.487.7-.308,1.061-.451c.24-.1.486-.191.734-.282s.5-.177.754-.261.515-.168.775-.245.529-.153.794-.224.542-.138.814-.2c.181-.041.367-.08.551-.12s.373-.074.559-.108.378-.067.566-.1.382-.058.573-.084.386-.048.579-.067.39-.039.583-.054.394-.026.589-.036.4-.016.591-.018c.13,0,.263,0,.393,0s.264,0,.394.009.263.008.393.015.262.017.391.028.261.024.389.039.258.03.384.047.256.039.381.06.251.046.374.072.246.055.367.084.24.062.356.1c.176.05.351.108.517.167s.33.127.486.2.307.144.45.222c.043.023.084.047.125.071s.081.047.121.071q.2.123.378.258a3.964,3.964,0,0,1,.333.276,3.575,3.575,0,0,1,.286.293c.059.067.113.134.164.2s.1.138.145.209.085.14.123.213.073.143.1.218.059.145.085.218.047.148.066.222.034.148.048.224a3.326,3.326,0,0,1,.046.672c0,.112-.014.222-.028.336s-.034.223-.059.335-.053.222-.087.334-.071.221-.113.331-.088.218-.139.328-.1.216-.161.325-.118.214-.183.32c-.1.161-.2.316-.312.474s-.228.31-.353.465-.255.3-.393.453-.279.3-.428.444-.3.291-.462.433c-.24.217-.489.425-.752.631s-.535.406-.818.6q-.644.446-1.35.858l-.185.107c-.207.119-.419.235-.634.349-.322.169-.656.337-.994.5s-.691.315-1.046.463c-.236.1-.479.195-.723.289s-.495.184-.745.272-.508.172-.765.252-.522.16-.785.233-.535.146-.805.213c-.179.045-.363.088-.545.129l-.554.117c-.184.036-.374.071-.561.105s-.379.063-.568.091-.383.056-.574.08-.388.045-.58.064-.392.035-.586.048-.394.025-.589.032-.4.011-.591.013c-.131,0-.264,0-.394,0s-.263,0-.394-.011-.262-.011-.392-.02-.261-.019-.39-.032-.259-.026-.387-.043-.257-.034-.383-.052-.254-.043-.378-.066-.249-.048-.371-.076-.244-.058-.363-.088-.237-.067-.353-.1c-.173-.053-.345-.112-.509-.176s-.324-.13-.477-.2a4.895,4.895,0,0,1-.438-.23c-.04-.022-.08-.046-.118-.069-.134-.082-.26-.166-.38-.257a4.155,4.155,0,0,1-.333-.274c-.1-.1-.2-.192-.288-.293-.058-.069-.113-.135-.165-.2s-.1-.138-.145-.209-.086-.141-.125-.212-.072-.144-.1-.217-.059-.145-.085-.22-.047-.147-.067-.222-.035-.147-.049-.222a3.261,3.261,0,0,1-.047-.673" fill="#b5eafc"/>
        <path id="Path_1035" data-name="Path 1035" d="M33.5,243.675l54.939-31.721a.773.773,0,0,0-.04-.246,1.184,1.184,0,0,0-.25-.435.81.81,0,0,0-.194-.158L33.02,242.837a.765.765,0,0,1,.193.158,1.174,1.174,0,0,1,.251.434.8.8,0,0,1,.04.246" fill="#b5eafc"/>
        <path id="Path_1036" data-name="Path 1036" d="M33.5,243.675v7.759l54.939-31.721v-7.759Z" fill="#4dafdb"/>
        <path id="Path_1037" data-name="Path 1037" d="M26.5,231.783a3.261,3.261,0,0,0,.047.673c.014.075.03.149.049.222s.042.149.067.222.054.148.085.22.066.144.1.217.08.142.125.212.093.14.145.209.107.135.165.2c.089.1.184.2.288.293a4.155,4.155,0,0,0,.333.274c.12.091.246.175.38.257.038.023.078.047.118.069a4.895,4.895,0,0,0,.438.23c.153.073.313.14.477.2s.336.123.509.176c.116.035.234.069.353.1s.241.06.363.088.247.054.371.076.251.047.378.066.255.037.383.052.258.03.387.043.26.022.39.032.262.016.392.02.264.009.394.011.263,0,.394,0c.195,0,.4-.006.591-.013s.4-.019.589-.032.393-.03.586-.048.389-.041.58-.064.385-.052.574-.08.381-.058.568-.091.377-.069.561-.105l.554-.117c.182-.041.366-.084.545-.129.27-.067.541-.138.805-.213s.527-.151.785-.233.514-.166.765-.252.5-.179.745-.272.487-.191.723-.289c.355-.148.706-.305,1.046-.463s.672-.327.994-.5c.215-.114.427-.23.634-.349l.185-.107q.708-.411,1.35-.858c.283-.2.554-.4.818-.6s.512-.414.752-.631c.16-.142.312-.285.462-.433s.29-.293.428-.444.267-.3.393-.453.242-.308.353-.465.215-.313.312-.474c.065-.106.125-.212.183-.32s.111-.217.161-.325.1-.218.139-.328.08-.221.113-.331.063-.222.087-.334.044-.222.059-.335.024-.224.028-.336a3.326,3.326,0,0,0-.046-.672c-.014-.076-.029-.149-.048-.224s-.041-.149-.066-.222-.053-.147-.085-.218-.066-.146-.1-.218-.078-.142-.123-.213-.093-.14-.145-.209-.1-.136-.164-.2a3.434,3.434,0,0,0-.287-.293,3.794,3.794,0,0,0-.332-.276q-.178-.135-.378-.258c-.04-.024-.08-.048-.121-.071s-.082-.048-.125-.071c-.143-.078-.294-.153-.45-.222s-.319-.134-.486-.2-.341-.117-.517-.167c-.116-.034-.236-.066-.356-.1s-.244-.059-.367-.084-.249-.05-.374-.072-.254-.041-.381-.06-.256-.034-.384-.047-.26-.028-.389-.039-.261-.02-.391-.028-.263-.013-.393-.015-.263-.007-.394-.009-.263,0-.393,0c-.195,0-.4.009-.591.018s-.4.021-.589.036-.391.033-.583.054-.389.043-.579.067-.384.054-.573.084-.379.062-.566.1-.375.071-.559.108-.37.079-.551.12c-.272.063-.548.132-.814.2s-.534.146-.794.224-.521.159-.775.245-.508.171-.754.261-.494.186-.734.282c-.36.143-.717.3-1.061.451s-.683.319-1.01.487-.648.34-.959.517l-.185.106q-.706.414-1.348.86c-.283.2-.555.4-.818.6s-.511.416-.751.63c-.16.144-.312.288-.461.435s-.291.293-.428.444-.267.3-.392.455-.242.306-.353.463-.214.314-.312.474c-.064.108-.124.213-.182.321s-.11.216-.161.326-.095.217-.137.327-.079.22-.113.332-.062.22-.086.332-.043.224-.058.336-.023.224-.027.336" fill="#d1f6ff"/>
        <path id="Path_1038" data-name="Path 1038" d="M53.127,216.41a3.159,3.159,0,0,0,.006.337,3.208,3.208,0,0,0,.041.336c.014.074.03.148.049.223s.041.147.067.221.053.146.085.22.066.144.1.216.079.142.125.213.093.139.145.209.107.136.165.2a3.773,3.773,0,0,0,.288.293c.1.1.214.187.333.276s.246.174.379.256c.039.024.079.046.118.069.14.082.287.158.439.23s.313.14.477.2.335.122.508.175q.174.054.354.1c.119.031.241.061.362.089s.247.053.371.076.252.046.378.065.256.037.383.053.259.03.388.042.26.023.39.031.262.017.392.022.263.009.394.011.262,0,.393,0c.2,0,.4-.005.591-.013s.4-.018.59-.032.392-.029.585-.048.389-.04.581-.064.384-.051.574-.079.38-.059.568-.092.376-.069.561-.1.371-.077.554-.117.365-.084.545-.129c.269-.066.541-.138.8-.212s.528-.152.785-.233.515-.166.766-.253.5-.178.744-.272.488-.19.724-.289c.355-.148.706-.3,1.045-.463s.672-.326.994-.5q.322-.171.635-.349l.185-.107q.707-.411,1.349-.858c.283-.2.555-.4.818-.6s.512-.415.752-.631c.16-.142.313-.286.463-.433s.29-.294.428-.444.267-.3.392-.454.242-.308.354-.465.215-.313.312-.473c.065-.107.125-.213.183-.321s.111-.216.161-.325.1-.217.138-.328.08-.22.114-.331.063-.221.087-.334.044-.222.058-.335a3.147,3.147,0,0,0,.028-.336c0-.113,0-.224,0-.337a3.155,3.155,0,0,0-.041-.335c-.013-.076-.028-.149-.048-.224s-.041-.148-.066-.221-.053-.146-.085-.219-.065-.145-.1-.217-.079-.142-.123-.213-.093-.14-.145-.209-.106-.137-.165-.2a3.576,3.576,0,0,0-.286-.293,4.209,4.209,0,0,0-.333-.276q-.177-.133-.377-.257c-.04-.024-.081-.049-.122-.072s-.082-.047-.124-.071c-.143-.077-.294-.152-.45-.221s-.319-.135-.486-.2-.342-.117-.517-.168c-.117-.033-.237-.066-.357-.1s-.244-.058-.366-.083-.249-.05-.374-.072-.254-.042-.381-.06-.257-.034-.385-.048-.259-.028-.389-.038-.261-.02-.391-.027-.262-.013-.392-.017-.263-.007-.394-.008-.263,0-.393,0c-.2,0-.4.01-.592.019s-.394.021-.588.036-.392.033-.584.053-.388.043-.578.068-.385.053-.573.083-.38.062-.566.1-.375.07-.559.108-.37.079-.552.12c-.272.063-.547.131-.813.2s-.534.146-.795.224-.521.16-.774.244-.508.172-.755.262-.494.186-.734.281c-.36.144-.716.3-1.06.452s-.683.319-1.011.486-.648.34-.958.518c-.063.035-.124.07-.185.106q-.707.413-1.348.859c-.284.2-.555.4-.817.6s-.512.415-.752.63c-.16.143-.312.287-.462.434s-.291.294-.428.444-.267.3-.392.455-.241.307-.353.464-.214.313-.311.474c-.064.107-.124.212-.182.321s-.11.215-.161.325-.1.217-.138.328-.078.219-.112.331-.063.221-.086.333-.044.223-.058.336-.023.223-.027.336" fill="#d1f6ff"/>
        <path id="Path_1039" data-name="Path 1039" d="M51.106,225.93c-.01.12-.02.23-.03.34s-.04.22-.06.34-.05.22-.09.33-.07.22-.11.33-.09.22-.14.33-.1.21-.16.32-.12.22-.18.32c-.1.16-.2.32-.32.48s-.22.31-.35.46-.25.31-.39.46-.28.29-.43.44-.3.29-.46.43q-.36.33-.75.63c-.27.21-.54.41-.82.61-.43.29-.88.58-1.35.86-.06.03-.12.07-.19.1-.2.12-.42.24-.63.35-.32.17-.66.34-1,.5s-.69.31-1.04.46c-.24.1-.48.2-.72.29l-.75.27c-.25.09-.51.17-.76.25s-.53.16-.79.24-.53.14-.8.21c-.18.04-.37.09-.55.13s-.37.08-.55.11-.38.08-.56.11l-.57.09c-.19.03-.39.06-.58.08s-.38.05-.58.06-.39.04-.58.05-.4.03-.59.03-.4.02-.59.02h-.4c-.13-.01-.26-.01-.39-.02s-.26-.01-.39-.02l-.39-.03c-.13-.01-.26-.03-.39-.04s-.26-.03-.38-.05-.26-.05-.38-.07-.25-.05-.37-.08-.25-.05-.36-.08-.24-.07-.36-.11c-.17-.05-.34-.11-.51-.17s-.32-.13-.47-.2-.3-.15-.44-.23a.746.746,0,0,0-.12-.07c-.13-.09-.26-.17-.38-.26a3.038,3.038,0,0,1-.33-.28,2.647,2.647,0,0,1-.29-.29l-.17-.2c-.05-.07-.09-.14-.14-.21a1.125,1.125,0,0,1-.12-.21c-.03-.07-.07-.13-.09-.19.07.06.14.12.22.18a2.808,2.808,0,0,0,.38.26,1.054,1.054,0,0,0,.11.07c.14.08.29.16.44.23s.31.14.48.2.33.12.51.18c.11.03.23.07.35.1l.36.09c.12.02.25.05.37.07s.26.05.38.07.26.04.38.05.26.03.39.04a2.561,2.561,0,0,0,.39.03l.39.03c.13,0,.27.01.4.01h.39c.2,0,.4-.01.59-.01l.59-.03c.2-.02.39-.03.59-.05s.39-.04.58-.07.38-.05.57-.08.38-.06.57-.09.38-.07.56-.1.37-.08.55-.12.37-.08.55-.13c.27-.06.54-.14.8-.21s.53-.15.79-.23.51-.17.76-.26.51-.18.75-.27.49-.19.72-.29c.36-.15.71-.3,1.05-.46s.67-.33.99-.5c.22-.11.43-.23.64-.35.06-.03.12-.07.18-.1.47-.28.92-.56,1.35-.86.29-.2.56-.4.82-.61s.51-.41.75-.62c.16-.15.31-.29.46-.44s.29-.29.43-.44.27-.3.4-.46.24-.3.35-.46.21-.31.31-.47a2.684,2.684,0,0,0,.18-.33,3.183,3.183,0,0,0,.16-.32,2.33,2.33,0,0,0,.14-.33c.05-.11.08-.22.12-.33s.06-.22.08-.33a2.214,2.214,0,0,0,.06-.34,1.841,1.841,0,0,0,.03-.33c0-.12,0-.23-.01-.34a2.092,2.092,0,0,0-.04-.34c-.01-.07-.03-.14-.04-.22a1.866,1.866,0,0,0-.07-.22c-.03-.08-.05-.15-.08-.22-.01-.02-.02-.03-.02-.05a1.2,1.2,0,0,0,.12.11,3.762,3.762,0,0,1,.28.29c.06.07.12.14.17.21s.1.14.14.21a2.393,2.393,0,0,1,.13.21c.03.07.07.14.1.22s.06.14.09.22.04.14.06.22a1.742,1.742,0,0,1,.05.22c.02.11.03.22.04.34s.01.22.01.33" fill="#4dafdb"/>
        <path id="Path_1040" data-name="Path 1040" d="M77.726,210.22a1.929,1.929,0,0,1,0,.34,2.041,2.041,0,0,1-.03.34c-.01.11-.03.22-.05.33s-.06.22-.09.34-.07.22-.11.33-.09.21-.14.32-.11.22-.16.33-.12.21-.19.32a4.764,4.764,0,0,1-.31.47c-.11.16-.23.31-.35.47l-.39.45c-.14.15-.28.3-.43.45s-.3.29-.46.43c-.25.22-.49.42-.76.63s-.53.41-.82.6c-.42.3-.87.59-1.34.86-.07.04-.13.07-.19.11-.21.12-.42.23-.63.35-.33.17-.66.33-1,.49s-.69.32-1.04.47c-.24.1-.48.19-.73.29s-.49.18-.74.27-.51.17-.77.25-.52.16-.78.23-.54.15-.81.22l-.54.12c-.18.04-.37.08-.56.12s-.37.07-.56.11-.38.06-.56.09-.39.05-.58.08l-.58.06c-.19.02-.39.04-.58.05l-.59.03c-.2.01-.4.01-.6.01h-.39c-.13,0-.26,0-.39-.01s-.26-.01-.39-.02l-.39-.03c-.13-.01-.26-.03-.39-.04s-.26-.04-.38-.06-.26-.04-.38-.06-.25-.05-.37-.08-.25-.06-.37-.09-.23-.06-.35-.1c-.17-.05-.34-.11-.51-.17s-.32-.14-.47-.21a4.536,4.536,0,0,1-.44-.23.745.745,0,0,1-.12-.07,3.568,3.568,0,0,1-.38-.25,3.04,3.04,0,0,1-.33-.28,2.647,2.647,0,0,1-.29-.29c-.06-.07-.12-.14-.17-.2s-.1-.14-.14-.21a1.592,1.592,0,0,1-.13-.22c-.03-.06-.06-.13-.09-.19a2,2,0,0,0,.22.19c.12.09.25.17.38.26l.12.06a3.679,3.679,0,0,0,.44.23c.15.08.31.14.48.21s.33.12.5.17c.12.04.24.07.36.1a2.37,2.37,0,0,0,.36.09c.12.03.25.06.37.08s.25.05.38.06.26.04.38.06.26.03.39.04l.39.03c.13.01.26.02.39.02s.27.01.4.01.26.01.39.01c.2,0,.4-.01.59-.02a5.682,5.682,0,0,0,.59-.03c.19-.01.39-.03.59-.05l.58-.06c.19-.02.38-.05.57-.08l.57-.09c.19-.03.37-.07.56-.11s.37-.07.55-.11.37-.09.55-.13c.27-.07.54-.14.8-.21s.53-.16.79-.24.51-.16.76-.25l.75-.27c.24-.1.48-.19.72-.29.36-.15.71-.31,1.05-.46s.67-.33.99-.5c.22-.11.43-.23.64-.35a1.738,1.738,0,0,0,.18-.11c.47-.27.92-.56,1.35-.85.28-.2.55-.4.82-.61s.51-.41.75-.63c.16-.14.31-.28.46-.43s.29-.3.43-.45.27-.3.39-.45.24-.31.36-.46.21-.32.31-.48c.06-.1.12-.21.18-.32s.11-.21.16-.32.1-.22.14-.33.08-.22.11-.33a1.888,1.888,0,0,0,.09-.34c.03-.11.04-.22.06-.33s.02-.22.03-.34,0-.22-.01-.33-.02-.23-.04-.34a1.419,1.419,0,0,0-.05-.22c-.02-.08-.04-.15-.06-.22s-.06-.15-.09-.22c-.01-.02-.01-.04-.02-.05a.689.689,0,0,1,.13.11,3.831,3.831,0,0,1,.28.29c.06.07.12.14.17.2s.1.14.14.21a1.2,1.2,0,0,1,.12.22,2.116,2.116,0,0,1,.11.21c.03.08.06.15.08.22s.05.15.07.22.03.15.05.23c.02.11.03.22.04.33" fill="#4dafdb"/>
        <path id="Path_1041" data-name="Path 1041" d="M38.146,229.011a.4.4,0,0,0,0,.756,1.447,1.447,0,0,0,1.31,0,.4.4,0,0,0,0-.756,1.447,1.447,0,0,0-1.31,0" fill="#83cef0"/>
        <path id="Path_1042" data-name="Path 1042" d="M64.773,213.269a.4.4,0,0,0,0,.756,1.447,1.447,0,0,0,1.31,0,.4.4,0,0,0,0-.756,1.447,1.447,0,0,0-1.31,0" fill="#83cef0"/>
        <path id="Path_1043" data-name="Path 1043" d="M26.5,231.78c0,.12,0,.23.009.34s.02.22.04.34a1.741,1.741,0,0,0,.05.22,1.865,1.865,0,0,0,.07.22,1.776,1.776,0,0,0,.081.22c.029.07.069.14.109.22a1.125,1.125,0,0,0,.12.21c.05.07.09.14.14.21l.17.2a2.647,2.647,0,0,0,.29.29,3.038,3.038,0,0,0,.33.28c.12.09.25.17.38.26a.746.746,0,0,1,.12.07,2.117,2.117,0,0,0,.21.11c-.07-.07-.14-.14-.2-.21s-.11-.13-.16-.2-.1-.14-.15-.21a1.125,1.125,0,0,1-.12-.21c-.04-.08-.08-.15-.11-.22a1.944,1.944,0,0,1-.08-.22,2.072,2.072,0,0,1-.07-.22,2.249,2.249,0,0,1-.05-.22c-.02-.12-.03-.23-.04-.34s-.01-.22-.01-.34l.03-.33a1.858,1.858,0,0,1,.06-.34c.02-.11.05-.22.08-.33s.07-.22.12-.33.081-.22.13-.33.11-.22.16-.33.12-.21.19-.32c.09-.16.2-.31.31-.47s.23-.31.35-.47l.39-.45c.14-.15.28-.3.43-.44s.3-.29.46-.44q.36-.315.751-.63c.269-.2.539-.4.819-.6.43-.3.88-.59,1.351-.86.059-.04.119-.07.179-.11.321-.18.64-.35.96-.51s.67-.33,1.01-.49.7-.31,1.06-.45c.24-.1.49-.19.74-.28l.75-.27.78-.24c.26-.08.53-.15.79-.22s.54-.14.821-.2a4.812,4.812,0,0,1,.549-.12c.18-.04.37-.08.56-.11s.37-.07.56-.1.38-.06.57-.08.39-.05.581-.07.389-.04.59-.05.389-.03.59-.04.389-.01.59-.02h.389c.13,0,.26,0,.39.01s.27.01.4.02.259.01.39.02.259.03.389.04.25.03.381.05.259.04.379.06.25.05.38.07.241.05.36.08.24.07.361.1c.169.05.349.11.52.17s.329.12.48.19a3.265,3.265,0,0,1,.369.19l-.09-.09c-.11-.09-.22-.19-.33-.27s-.25-.18-.38-.26a4.209,4.209,0,0,0-.25-.14,4.617,4.617,0,0,0-.45-.23c-.15-.07-.32-.13-.48-.19s-.35-.12-.52-.17l-.36-.09-.36-.09c-.129-.02-.25-.05-.379-.07l-.381-.06c-.13-.02-.26-.03-.38-.05s-.259-.03-.39-.04-.259-.02-.39-.02-.27-.02-.4-.02-.26-.01-.39-.01h-.39c-.2.01-.4.01-.59.02s-.4.02-.59.04-.39.03-.59.05-.39.04-.58.07-.38.05-.57.08-.379.06-.56.1-.38.07-.56.11a4.877,4.877,0,0,0-.55.12c-.28.06-.549.13-.82.2s-.53.14-.79.22l-.78.24c-.25.09-.51.18-.75.27s-.5.18-.74.28c-.36.14-.71.29-1.06.45s-.68.32-1.01.49-.64.34-.96.51c-.06.04-.12.07-.18.11-.47.27-.92.56-1.35.86-.279.2-.55.4-.82.6s-.51.42-.75.63c-.16.15-.31.29-.459.44s-.291.29-.431.44-.26.3-.39.46-.24.3-.35.46-.22.31-.31.47c-.07.11-.13.22-.19.32s-.11.22-.16.33-.09.22-.13.33-.08.22-.12.33-.06.22-.08.33a1.857,1.857,0,0,0-.06.34Z" fill="#fff"/>
        <path id="Path_1044" data-name="Path 1044" d="M53.126,216.41c0,.11,0,.22.01.34a1.859,1.859,0,0,0,.04.33,1.892,1.892,0,0,0,.05.23c.02.07.04.14.06.22s.06.14.09.22.07.14.1.21a1.592,1.592,0,0,0,.13.22c.04.07.09.14.14.21s.11.13.17.2a2.647,2.647,0,0,0,.29.29,3.04,3.04,0,0,0,.33.28,3.568,3.568,0,0,0,.38.25.745.745,0,0,0,.12.07l.21.12c-.07-.07-.14-.14-.2-.21s-.12-.14-.17-.21a2.424,2.424,0,0,1-.14-.2c-.05-.08-.09-.15-.13-.22s-.07-.14-.1-.21-.06-.15-.09-.22-.04-.15-.06-.22a1.892,1.892,0,0,1-.05-.23,1.859,1.859,0,0,1-.04-.33c-.01-.12-.01-.23-.01-.34a2.042,2.042,0,0,1,.03-.34,1.91,1.91,0,0,1,.06-.33c.02-.11.05-.22.08-.34s.07-.22.11-.33.09-.22.14-.32.11-.22.16-.33.12-.21.19-.32a3.466,3.466,0,0,1,.31-.47c.11-.16.22-.31.35-.47s.25-.3.39-.45.28-.3.43-.45.3-.29.46-.43c.24-.22.49-.42.75-.63s.54-.41.82-.61c.43-.29.88-.58,1.35-.85a1.743,1.743,0,0,1,.18-.11c.31-.18.63-.35.96-.52s.67-.33,1.01-.48.7-.31,1.06-.46c.24-.09.49-.19.74-.28s.5-.18.75-.26.52-.17.78-.24.52-.16.79-.23.54-.14.81-.2l.55-.12c.19-.04.38-.07.56-.11l.57-.09.57-.09.58-.06.59-.06.58-.03c.2-.01.4-.02.59-.02h.4c.13,0,.26,0,.39.01s.26,0,.39.01l.4.03c.12.01.26.02.38.04s.26.03.39.05a2.5,2.5,0,0,1,.38.06c.12.02.25.04.37.07s.25.05.37.08.24.06.36.1c.17.05.35.1.51.16s.33.13.49.2a3.777,3.777,0,0,1,.35.17.462.462,0,0,0-.07-.07c-.11-.1-.22-.19-.34-.28s-.24-.17-.37-.25a1.48,1.48,0,0,0-.13-.08.745.745,0,0,1-.12-.07c-.14-.07-.29-.15-.45-.22s-.32-.13-.49-.19-.34-.12-.51-.17c-.12-.04-.24-.07-.36-.1s-.24-.06-.37-.08-.25-.05-.37-.07a2.5,2.5,0,0,0-.38-.06c-.13-.02-.26-.04-.39-.05s-.26-.03-.38-.04l-.4-.03c-.13,0-.26-.01-.39-.01s-.26-.01-.39-.01h-.4c-.19,0-.39.01-.59.02l-.58.03-.59.06c-.19.02-.39.04-.58.07s-.38.05-.57.08l-.57.09c-.18.04-.37.07-.56.11l-.55.12c-.27.07-.54.13-.81.2s-.53.15-.79.23-.53.16-.78.24-.51.17-.75.26-.5.19-.74.28c-.36.15-.71.3-1.06.46s-.68.32-1.01.48-.65.34-.96.52c-.06.04-.12.07-.18.11-.47.27-.92.56-1.35.85-.28.2-.56.4-.82.61s-.51.41-.75.63c-.16.14-.31.29-.46.43s-.29.3-.43.45-.27.3-.39.45-.24.31-.35.47a3.463,3.463,0,0,0-.31.47c-.07.11-.13.21-.19.32s-.11.22-.16.33-.09.21-.14.32-.07.22-.11.34-.06.22-.08.33a1.91,1.91,0,0,0-.06.33,2.042,2.042,0,0,0-.03.34" fill="#fff"/>
        <path id="Path_1045" data-name="Path 1045" d="M13.061,156.394V207.8l54.77-31.633V124.761Z" fill="#e8f1ff"/>
        <path id="Path_1046" data-name="Path 1046" d="M13.062,156.394v51.413L67.83,176.17V124.762Z" fill="#d1f4ff"/>
        <path id="Path_1047" data-name="Path 1047" d="M67.831,124.761l-54.77,31.633-.858-.5,54.77-31.633h0Z" fill="#3b4760"/>
        <path id="Path_1048" data-name="Path 1048" d="M13.061,156.394V207.8l-.857-.5V155.9Z" fill="#606b82"/>
        <g id="Group_1056" data-name="Group 1056" opacity="0.7" style="mix-blend-mode: screen;isolation: isolate">
          <g id="Group_1055" data-name="Group 1055">
            <g id="Group_1054" data-name="Group 1054" clip-path="url(#clip-path-13)">
              <path id="Path_1049" data-name="Path 1049" d="M67.829,144.446V176.17L13.061,207.807V184.846Z" fill="#fff"/>
            </g>
          </g>
        </g>
        <path id="Path_1050" data-name="Path 1050" d="M39.727,198.366V207.4l2.319,1.339q0-1.248,0-2.5,0-.762-.011-1.527c-.006-.511-.016-1.023-.033-1.539-.008-.229-.017-.46-.029-.692s-.026-.464-.045-.7-.042-.472-.074-.712c-.02-.161-.045-.323-.076-.486-.02-.11-.043-.22-.07-.33s-.057-.223-.094-.335a3.361,3.361,0,0,0-.127-.337c-.033-.074-.07-.148-.11-.219a.327.327,0,0,0-.043-.06.222.222,0,0,0-.027-.026.18.18,0,0,0-.028-.02Z" fill="#c5dcff"/>
        <path id="Path_1051" data-name="Path 1051" d="M39.727,198.366l1.549.894a.337.337,0,0,1,.017-.1.5.5,0,0,1,.1-.182.317.317,0,0,1,.081-.066l-1.549-.894a.318.318,0,0,0-.081.066.5.5,0,0,0-.1.182.332.332,0,0,0-.017.1" fill="#c5dcff"/>
        <path id="Path_1052" data-name="Path 1052" d="M39.93,198.014l1.549.895,3.007-1.736L43.14,196.4l-.2-.117Z" fill="#c5dcff"/>
        <path id="Path_1053" data-name="Path 1053" d="M41.724,199.172l-.35.194c.04.071.076.145.109.219a3.142,3.142,0,0,1,.128.337c.037.112.067.224.094.334s.05.221.07.33c.031.164.055.326.076.486.031.241.055.478.073.713s.034.469.046.7.021.462.029.692c.017.516.026,1.028.033,1.539s.009,1.019.011,1.526q0,1.251,0,2.5a.371.371,0,0,0,.053.024l.034.01a.43.43,0,0,0,.054.011.509.509,0,0,0,.056,0,.53.53,0,0,0,.057,0,.5.5,0,0,0,.056-.009.432.432,0,0,0,.051-.016.31.31,0,0,0,.045-.021q0-1.248,0-2.5,0-.762-.011-1.529c-.007-.511-.016-1.025-.033-1.544q-.012-.347-.03-.7c-.012-.234-.026-.47-.046-.709s-.043-.481-.075-.729c-.021-.165-.047-.333-.079-.505-.021-.114-.045-.231-.074-.35s-.062-.24-.1-.365a3.816,3.816,0,0,0-.146-.383c-.038-.086-.081-.173-.129-.258" fill="#c5dcff"/>
        <path id="Path_1054" data-name="Path 1054" d="M41.479,198.909a.366.366,0,0,0-.081.066.5.5,0,0,0-.1.182.338.338,0,0,0-.017.1.131.131,0,0,1,.028.02.16.16,0,0,1,.027.025.327.327,0,0,1,.043.06l.35-.194a.891.891,0,0,0-.106-.149.808.808,0,0,0-.068-.064.46.46,0,0,0-.071-.05" fill="#c5dcff"/>
        <path id="Path_1055" data-name="Path 1055" d="M44.486,197.173q-1.5.868-3.007,1.736a.46.46,0,0,1,.071.05.808.808,0,0,1,.068.064.891.891,0,0,1,.106.149l3.008-1.736a.93.93,0,0,0-.055-.084.668.668,0,0,0-.062-.075.578.578,0,0,0-.129-.1" fill="#c5dcff"/>
        <path id="Path_1056" data-name="Path 1056" d="M41.724,199.172c.047.085.091.173.129.259a3.956,3.956,0,0,1,.146.382c.04.125.073.247.1.365s.053.236.074.35c.032.172.058.341.079.505.032.248.056.49.075.729s.034.475.046.709.022.466.029.7c.018.519.027,1.033.033,1.545s.01,1.02.012,1.529q0,1.251,0,2.5l.834-.482v-1.419l1.338-.773a.154.154,0,0,1,.019.017c.013.011.024.022.035.033l.034.034.032.036c.01.012.02.023.03.036s.019.024.028.037l.027.037c.009.013.017.024.025.037s.016.025.023.038l.022.038c.007.012.014.024.02.037s.019.037.028.056.018.036.026.055l.023.055.021.054.018.054c.009.027.017.052.025.079s.015.052.022.079.013.051.019.077.011.051.017.076.014.075.021.114c0,.013,0,.027.007.04l.313-.181v-.234q0-1.131,0-2.265c0-.508-.005-1.017-.012-1.528s-.015-1.026-.033-1.545q-.01-.347-.029-.7c-.012-.234-.026-.47-.045-.709s-.044-.481-.076-.729c-.021-.165-.047-.333-.079-.5-.021-.114-.045-.23-.074-.35s-.062-.24-.1-.365a3.957,3.957,0,0,0-.146-.382,2.836,2.836,0,0,0-.129-.259l-3.007,1.736m1.845,1.3c0-.013,0-.028,0-.041s.006-.028.009-.041a.267.267,0,0,1,.013-.04c0-.013.011-.028.017-.04s.013-.026.02-.038.016-.024.024-.034a.354.354,0,0,1,.041-.045.28.28,0,0,1,.046-.033c.008-.006.018-.011.026-.016a.218.218,0,0,1,.061-.023.153.153,0,0,1,.03,0l.029,0a.093.093,0,0,1,.026.01.12.12,0,0,1,.024.015.208.208,0,0,1,.021.021.18.18,0,0,1,.018.027.208.208,0,0,1,.013.03.285.285,0,0,1,.012.054c.011.1.021.205.031.308.018.21.034.418.046.625.019.31.032.618.043.924.016.459.025.915.031,1.369s.01.906.013,1.358v.015c0,.011,0,.025,0,.037a.3.3,0,0,1-.009.038c0,.013-.008.027-.012.04l-.017.039c-.006.012-.013.026-.02.038l-.024.036a.418.418,0,0,1-.026.033.443.443,0,0,1-.044.043.264.264,0,0,1-.046.033l-.027.016a.2.2,0,0,1-.057.023.1.1,0,0,1-.029,0,.077.077,0,0,1-.026,0,.067.067,0,0,1-.024-.007.1.1,0,0,1-.021-.014.117.117,0,0,1-.032-.043.115.115,0,0,1-.009-.028.209.209,0,0,1-.006-.051q0-.523-.008-1.047-.008-.681-.026-1.366c-.008-.306-.019-.612-.035-.92-.01-.206-.022-.413-.038-.621s-.033-.418-.057-.63v-.018a.254.254,0,0,1,0-.039" fill="#c5dcff"/>
        <path id="Path_1057" data-name="Path 1057" d="M43.007,196.252a.2.2,0,0,0-.07.026l.2.118a.168.168,0,0,0-.041-.119l-.007-.006-.012-.007a.121.121,0,0,0-.073-.012" fill="#c5dcff"/>
        <path id="Path_1058" data-name="Path 1058" d="M43.286,206.838v1.42l.583.337c0-.08-.009-.159-.016-.241,0-.054-.009-.107-.015-.162s-.013-.108-.02-.164c-.006-.037-.011-.074-.018-.111s-.013-.075-.021-.113-.011-.051-.017-.077-.012-.051-.019-.077-.013-.052-.021-.079-.016-.052-.025-.079l-.019-.054-.021-.054c-.007-.019-.015-.036-.023-.055s-.016-.036-.025-.055-.018-.037-.028-.056l-.02-.038-.022-.037-.023-.037-.025-.038-.027-.037c-.009-.013-.019-.024-.028-.037s-.02-.024-.031-.036a.361.361,0,0,0-.032-.036c-.011-.012-.021-.023-.033-.034l-.035-.033-.019-.017" fill="#c5dcff"/>
        <path id="Path_1059" data-name="Path 1059" d="M43.569,200.473a.254.254,0,0,0,0,.039v.018c.024.212.042.421.057.63s.028.415.038.621c.016.308.027.614.035.92q.02.686.026,1.366.006.523.008,1.047a.209.209,0,0,0,.006.051.115.115,0,0,0,.009.028.117.117,0,0,0,.032.043.1.1,0,0,0,.021.014.067.067,0,0,0,.024.007.077.077,0,0,0,.026,0,.1.1,0,0,0,.029,0,.2.2,0,0,0,.057-.023l.027-.016a.264.264,0,0,0,.046-.033.443.443,0,0,0,.044-.043.418.418,0,0,0,.026-.033l.024-.036c.007-.012.014-.026.02-.038l.017-.039c0-.013.009-.027.012-.04a.3.3,0,0,0,.009-.038c0-.012,0-.026,0-.037v-.015c0-.452-.006-.9-.013-1.358s-.015-.91-.031-1.369c-.011-.306-.024-.614-.043-.924-.012-.207-.028-.415-.046-.625-.01-.1-.02-.205-.031-.308a.285.285,0,0,0-.012-.054.208.208,0,0,0-.013-.03.18.18,0,0,0-.018-.027.208.208,0,0,0-.021-.021.12.12,0,0,0-.024-.015.093.093,0,0,0-.026-.01l-.029,0a.153.153,0,0,0-.03,0,.218.218,0,0,0-.061.023c-.008,0-.018.01-.026.016a.28.28,0,0,0-.046.033.354.354,0,0,0-.041.045c-.008.01-.016.023-.024.034s-.014.026-.02.038-.012.027-.017.04a.267.267,0,0,0-.013.04c0,.013-.007.029-.009.041s0,.029,0,.041" fill="#c5dcff"/>
        <path id="Path_1060" data-name="Path 1060" d="M44.629,197.159l-1.538-.887.008.006a.167.167,0,0,1,.041.118l1.346.777a.21.21,0,0,1,.07-.026.123.123,0,0,1,.073.012" fill="#c5dcff"/>
        <path id="Path_1061" data-name="Path 1061" d="M44.486,197.173a.578.578,0,0,1,.129.1.668.668,0,0,1,.062.075.93.93,0,0,1,.055.084l.037-.022.028-.016.019-.012.007,0,.007,0,0,0,0,0a.639.639,0,0,0-.07-.1.576.576,0,0,0-.042-.044.555.555,0,0,0-.046-.039l-.045-.029,0,0a.121.121,0,0,0-.073-.012.219.219,0,0,0-.07.026" fill="#c5dcff"/>
        <path id="Path_1062" data-name="Path 1062" d="M45.146,207.185l-.007-.041c-.006-.038-.013-.074-.021-.113s-.011-.05-.017-.076-.012-.051-.019-.077-.013-.052-.021-.079-.016-.052-.025-.079-.012-.036-.019-.054L45,206.612c-.008-.019-.015-.037-.023-.055s-.016-.037-.025-.056-.018-.036-.028-.055l-.02-.038c-.008-.012-.014-.024-.022-.037s-.015-.025-.024-.038l-.024-.037-.027-.037-.029-.037a.336.336,0,0,0-.03-.036.36.36,0,0,0-.032-.036c-.011-.012-.021-.023-.033-.034l-.035-.033-.019-.017-1.338.772.019.017c.012.011.023.022.034.034s.023.022.034.034l.032.035.03.036.029.037.026.038c.009.012.017.024.025.037a.384.384,0,0,1,.023.038c.008.012.015.024.022.037s.014.025.021.037.018.037.028.056.017.037.025.056l.023.054c.007.019.014.036.02.055s.013.035.019.053.017.053.025.08.015.052.022.078.013.052.019.078.011.051.017.076.014.075.021.113.012.074.017.111c.008.056.015.11.02.165s.011.108.016.162c.006.081.012.16.016.24l1.338-.772c0-.08-.009-.16-.016-.241,0-.054-.009-.107-.015-.162s-.012-.109-.02-.164l-.011-.071" fill="#c5dcff"/>
        <path id="Path_1063" data-name="Path 1063" d="M45.459,206.77V207a.2.2,0,0,0,.032-.022.184.184,0,0,0,.028-.028.134.134,0,0,0,.017-.031.078.078,0,0,0,.007-.033v0a.1.1,0,0,0-.005-.03.107.107,0,0,0-.016-.032.145.145,0,0,0-.027-.029.256.256,0,0,0-.036-.026" fill="#c5dcff"/>
        <path id="Path_1064" data-name="Path 1064" d="M45.538,206.857a.1.1,0,0,1,.005.029v-.163q0-.8,0-1.6t-.007-1.6c0-.268-.005-.537-.008-.805-.008-.538-.019-1.08-.04-1.626-.01-.273-.023-.549-.041-.826s-.041-.56-.072-.843-.073-.579-.134-.873c-.03-.147-.066-.3-.11-.45-.022-.075-.047-.151-.074-.226s-.056-.151-.088-.225-.068-.15-.107-.222l-.027-.049,0,0,0,0-.006.005-.008,0-.019.012-.027.016-.038.022c.047.085.091.173.129.259a3.7,3.7,0,0,1,.145.382c.041.125.074.247.1.365s.053.236.074.351c.032.171.058.339.079.5.032.248.056.49.075.729s.034.475.046.709.022.466.029.7c.018.519.027,1.033.033,1.545s.01,1.02.012,1.529q0,1.134,0,2.264a.256.256,0,0,1,.036.026.182.182,0,0,1,.027.029.107.107,0,0,1,.016.032" fill="#c5dcff"/>
        <path id="Path_1065" data-name="Path 1065" d="M39.727,198.41v9.035l2.319,1.339q0-1.248,0-2.5,0-.762-.011-1.527c-.006-.511-.016-1.023-.033-1.539-.008-.229-.017-.46-.029-.691s-.026-.465-.045-.7-.042-.473-.074-.713c-.02-.161-.045-.323-.076-.487-.02-.109-.043-.219-.07-.329s-.057-.223-.094-.335a3.362,3.362,0,0,0-.127-.337c-.033-.074-.07-.148-.11-.219a.326.326,0,0,0-.043-.06.222.222,0,0,0-.027-.026.173.173,0,0,0-.028-.019Z" fill="#4dafdb"/>
        <path id="Path_1066" data-name="Path 1066" d="M45.456,204.505q0,1.252,0,2.5a.141.141,0,0,0,.084-.117v-.164q0-.8,0-1.6c0-.534,0-1.069-.007-1.6q0-.4-.008-.8c-.007-.538-.018-1.08-.039-1.626-.011-.273-.024-.549-.042-.826s-.04-.559-.072-.843-.072-.578-.133-.873c-.03-.147-.067-.3-.111-.449-.022-.075-.046-.152-.073-.227s-.056-.151-.089-.225-.068-.149-.106-.221l-.027-.05a.69.69,0,0,0-.07-.1.579.579,0,0,0-.042-.044.561.561,0,0,0-.046-.039.49.49,0,0,0-.048-.031l-1.549-.894,0,0a.126.126,0,0,0-.069-.01.2.2,0,0,0-.07.026l1.549.9-3.007,1.736-1.549-.895a.366.366,0,0,0-.081.066.5.5,0,0,0-.1.182.338.338,0,0,0-.017.1l1.549.894a.132.132,0,0,1,.028.02.166.166,0,0,1,.027.026.319.319,0,0,1,.043.059c.04.072.077.146.11.22.049.111.091.224.128.336s.066.224.093.335.05.221.071.33q.045.246.075.486c.032.24.055.478.074.713s.033.468.045.7.021.462.029.692c.018.516.027,1.028.033,1.539s.009,1.018.011,1.526q0,1.251,0,2.5a.339.339,0,0,0,.054.024l.033.01a.321.321,0,0,0,.054.01.363.363,0,0,0,.057,0,.349.349,0,0,0,.056,0,.345.345,0,0,0,.056-.01.3.3,0,0,0,.051-.015.267.267,0,0,0,.045-.021q0-1.248,0-2.5,0-.762-.011-1.529c-.007-.511-.016-1.025-.033-1.545-.008-.23-.017-.462-.029-.7s-.027-.469-.046-.708-.043-.481-.075-.729c-.022-.165-.048-.333-.079-.505-.022-.115-.046-.231-.075-.35s-.062-.24-.1-.365a3.726,3.726,0,0,0-.146-.383c-.038-.086-.081-.173-.129-.258l3.008-1.736c.047.085.09.172.129.258a3.959,3.959,0,0,1,.145.383c.04.125.074.246.1.365s.054.235.075.35c.032.172.057.34.079.5.032.247.056.49.075.729s.034.475.046.708.021.466.029.7c.018.52.026,1.033.033,1.545s.009,1.021.011,1.529" fill="#c2edfc"/>
        <path id="Path_1067" data-name="Path 1067" d="M39.93,198.014l1.549.9,3.007-1.737-1.549-.894Z" fill="#84d9f5"/>
        <path id="Path_1068" data-name="Path 1068" d="M44.731,197.436l-3.007,1.736c.047.085.09.172.129.259a3.862,3.862,0,0,1,.145.383c.041.124.074.246.1.365s.053.235.074.349c.032.172.057.34.079.506.032.247.056.489.075.728s.034.475.046.709.021.466.029.7c.018.519.027,1.033.033,1.545s.01,1.02.012,1.529q0,1.251,0,2.5L45.459,207q0-1.248,0-2.5,0-.762-.011-1.529c-.006-.511-.015-1.025-.033-1.544q-.01-.347-.029-.7t-.046-.709c-.019-.239-.043-.481-.075-.729-.021-.165-.047-.333-.079-.5-.021-.114-.045-.231-.074-.35s-.062-.24-.1-.365a3.8,3.8,0,0,0-.145-.383c-.038-.086-.082-.173-.129-.258" fill="#c2edfc"/>
        <path id="Path_1069" data-name="Path 1069" d="M43.592,200.192a.254.254,0,0,0,0,.039v.018c.024.212.042.422.057.63s.028.415.038.621c.016.308.027.615.035.92q.02.686.026,1.366.006.523.008,1.047a.2.2,0,0,0,.006.051.115.115,0,0,0,.009.028.1.1,0,0,0,.014.024.109.109,0,0,0,.018.019.1.1,0,0,0,.021.014.066.066,0,0,0,.024.007.08.08,0,0,0,.027,0l.028,0a.231.231,0,0,0,.057-.024l.027-.016a.312.312,0,0,0,.047-.033.348.348,0,0,0,.043-.043.417.417,0,0,0,.026-.033c.008-.011.017-.025.024-.036s.014-.026.02-.038.012-.027.017-.039.009-.027.012-.04a.262.262,0,0,0,.009-.038.24.24,0,0,0,0-.037v-.015q0-.678-.013-1.358c-.006-.454-.015-.91-.031-1.369q-.015-.459-.043-.924-.018-.311-.046-.625c-.01-.1-.02-.205-.031-.308a.225.225,0,0,0-.012-.054.272.272,0,0,0-.013-.03.182.182,0,0,0-.018-.027.207.207,0,0,0-.021-.021.12.12,0,0,0-.024-.015.093.093,0,0,0-.026-.01l-.029,0a.153.153,0,0,0-.03,0,.211.211,0,0,0-.06.023l-.028.016a.322.322,0,0,0-.045.033.354.354,0,0,0-.041.045l-.024.034c-.007.012-.014.026-.02.038s-.012.027-.017.04a.31.31,0,0,0-.013.04c0,.013-.006.029-.009.041a.3.3,0,0,0,0,.041" fill="#4dafdb"/>
        <path id="Path_1070" data-name="Path 1070" d="M43.286,206.838v1.42l.583.337c0-.08-.009-.16-.016-.241,0-.054-.009-.107-.015-.162s-.013-.108-.021-.164c-.005-.037-.01-.074-.017-.111s-.013-.075-.021-.113-.011-.051-.017-.077-.012-.051-.019-.077-.013-.052-.021-.079-.016-.052-.025-.079l-.019-.054-.021-.054c-.007-.019-.015-.036-.023-.055s-.016-.036-.025-.055-.018-.037-.028-.056l-.02-.038c-.007-.013-.014-.024-.022-.037l-.023-.037-.025-.038-.027-.037c-.009-.013-.019-.024-.028-.037l-.031-.036a.361.361,0,0,0-.032-.036c-.011-.012-.021-.023-.033-.034l-.035-.033-.019-.017" fill="#4dafdb"/>
        <path id="Path_1071" data-name="Path 1071" d="M43.286,206.838l.019.017.035.033c.012.011.022.022.033.034a.361.361,0,0,1,.032.036l.031.036c.009.013.019.024.028.037l.027.037.025.038.023.037c.008.013.015.024.022.037l.02.038c.01.019.019.036.028.056s.017.036.025.055.016.036.023.055l.021.054.019.054c.009.027.017.052.025.079s.015.052.021.079.013.051.019.077.012.051.017.077.015.075.021.113.012.074.017.111c.008.056.015.109.021.164s.011.108.015.162c.007.081.012.161.016.241l1.339-.773c-.005-.08-.01-.159-.017-.24,0-.054-.009-.108-.015-.163s-.012-.108-.02-.164c0-.037-.011-.074-.017-.111s-.014-.074-.022-.113-.01-.051-.016-.076-.012-.052-.019-.078-.014-.052-.022-.078-.016-.052-.025-.08l-.019-.054c-.006-.018-.013-.035-.02-.054l-.023-.055-.026-.055c-.009-.019-.018-.037-.028-.056l-.02-.037-.022-.038-.023-.037-.025-.038-.027-.037-.028-.037-.03-.036-.032-.036-.034-.034-.035-.033-.019-.017Z" fill="#fff"/>
        <path id="Path_1072" data-name="Path 1072" d="M40.147,199.093v8.065l1.479.854c0-.6,0-1.2,0-1.794,0-.379,0-.76-.006-1.141l-.006-.57c0-.191-.005-.381-.008-.571l-.012-.573c0-.19-.011-.382-.018-.573s-.016-.382-.026-.575-.023-.382-.037-.574c-.008-.1-.016-.192-.025-.287s-.019-.193-.03-.288-.024-.19-.037-.285-.029-.189-.045-.282-.036-.185-.056-.274-.045-.179-.069-.263-.054-.164-.084-.237l-.022-.054,0,0-.994-.574" fill="#84d9f5"/>
        <path id="Path_1073" data-name="Path 1073" d="M89.953,147.216l-12.691,7.328q0,3.417,2.594,8.918l12.691-7.327q-2.593-5.5-2.594-8.919" fill="#fff"/>
        <path id="Path_1074" data-name="Path 1074" d="M72.722,142.16v15.549l3.991,2.305q0-2.148,0-4.3,0-1.31-.02-2.627c-.011-.878-.027-1.759-.057-2.649-.013-.394-.028-.791-.049-1.19s-.046-.8-.078-1.2-.073-.813-.127-1.228c-.036-.275-.078-.554-.13-.836q-.053-.282-.121-.567c-.046-.191-.1-.384-.161-.577a5.77,5.77,0,0,0-.221-.579,4.139,4.139,0,0,0-.188-.377.528.528,0,0,0-.073-.1.48.48,0,0,0-.047-.044.445.445,0,0,0-.048-.035Z" fill="#d9f8ff"/>
        <path id="Path_1075" data-name="Path 1075" d="M92.474,146.964q.007,2.154,0,4.3a.271.271,0,0,0,.144-.2c0-.094,0-.187,0-.281q0-1.377,0-2.756c0-.918,0-1.839-.012-2.761q0-.692-.015-1.386c-.012-.925-.03-1.859-.067-2.8-.018-.47-.04-.945-.071-1.422s-.07-.962-.124-1.45-.125-1-.229-1.5c-.053-.253-.115-.516-.191-.773-.038-.129-.081-.261-.126-.39s-.1-.26-.152-.387-.118-.258-.184-.381l-.046-.086a1.08,1.08,0,0,0-.12-.172c-.023-.026-.048-.053-.072-.076s-.053-.046-.08-.067a.716.716,0,0,0-.082-.053l-2.666-1.539-.035-.016a.284.284,0,0,0-.211.041l2.665,1.539-2.726,1.574-9.893,5.712q-1.226.705-2.449,1.413l-2.666-1.539a.6.6,0,0,0-.14.114.846.846,0,0,0-.18.313.577.577,0,0,0-.029.178l2.666,1.539a.37.37,0,0,1,.049.035.482.482,0,0,1,.047.044.574.574,0,0,1,.073.1c.068.122.131.249.188.376a6.057,6.057,0,0,1,.221.581c.062.192.115.385.16.576s.087.379.121.567c.052.282.1.561.131.836.053.414.094.823.127,1.228s.057.806.077,1.2.037.8.05,1.19c.03.889.046,1.771.057,2.649s.016,1.753.019,2.627q.009,2.153.006,4.3a.544.544,0,0,0,.091.041q.028.01.057.018c.031.007.061.013.093.018a.794.794,0,0,0,.1.006c.032,0,.066,0,.1,0s.065-.01.1-.016a.6.6,0,0,0,.088-.027.559.559,0,0,0,.078-.036q0-2.148-.005-4.3c0-.874-.009-1.751-.02-2.631s-.027-1.765-.057-2.658c-.013-.4-.029-.8-.049-1.2s-.047-.808-.08-1.219-.074-.828-.129-1.255c-.037-.284-.081-.573-.136-.869-.037-.2-.079-.4-.128-.6s-.107-.414-.176-.628a6.568,6.568,0,0,0-.25-.659c-.066-.148-.141-.3-.223-.445l2.449-1.414,9.893-5.711,2.726-1.575c.083.147.157.3.223.446a6.465,6.465,0,0,1,.25.658c.069.214.127.424.177.629s.09.4.128.6c.054.295.1.585.135.869.055.425.1.843.129,1.254s.059.817.079,1.219.037.8.05,1.2c.031.894.046,1.778.057,2.658s.017,1.757.02,2.632" fill="#c2edfc"/>
        <path id="Path_1076" data-name="Path 1076" d="M73.07,141.505l2.666,1.539q1.224-.707,2.449-1.413l9.893-5.712,2.726-1.575L88.138,132.8l-2.726,1.575-9.893,5.712Z" fill="#84d9f5"/>
        <path id="Path_1077" data-name="Path 1077" d="M78.607,142.083q-1.224.708-2.449,1.414c.082.147.157.3.223.446a6.553,6.553,0,0,1,.25.658c.069.215.127.424.176.629s.091.4.129.6c.054.3.1.586.135.87.055.426.1.843.129,1.255s.059.815.08,1.218.036.8.049,1.2c.03.894.046,1.778.057,2.658s.017,1.758.02,2.631q.008,2.157.005,4.3,1.224-.707,2.448-1.413l9.894-5.712,2.726-1.575q0-2.147,0-4.3,0-1.312-.019-2.632c-.012-.881-.027-1.765-.057-2.659q-.02-.6-.051-1.2c-.02-.4-.045-.808-.079-1.219s-.073-.829-.129-1.255c-.037-.284-.08-.573-.135-.868-.037-.2-.079-.4-.128-.6s-.107-.414-.177-.628a6.335,6.335,0,0,0-.25-.659c-.066-.148-.14-.3-.223-.445L88.5,136.372Z" fill="#4dafdb"/>
        <path id="Path_1078" data-name="Path 1078" d="M84.105,142.851c0,.021,0,.046,0,.067l0,.03c.04.365.072.727.1,1.085s.047.714.064,1.068c.027.531.046,1.059.061,1.584.022.788.035,1.57.044,2.351q.011.9.014,1.8a.385.385,0,0,0,.01.087.216.216,0,0,0,.016.049.191.191,0,0,0,.024.042.188.188,0,0,0,.031.032.126.126,0,0,0,.036.024.179.179,0,0,0,.041.013.175.175,0,0,0,.046,0,.3.3,0,0,0,.049-.007.337.337,0,0,0,.1-.04l.045-.027a.5.5,0,0,0,.081-.057.865.865,0,0,0,.075-.074c.015-.018.031-.038.045-.058s.028-.041.04-.062.025-.044.035-.065.021-.046.029-.067.016-.047.021-.067.011-.046.015-.067.005-.044.006-.063v-.026q-.006-1.166-.022-2.338c-.011-.781-.027-1.566-.054-2.355-.018-.527-.041-1.057-.073-1.591-.022-.356-.048-.714-.081-1.076-.015-.176-.033-.352-.052-.529a.451.451,0,0,0-.021-.093.223.223,0,0,0-.023-.052.243.243,0,0,0-.03-.046.175.175,0,0,0-.036-.036.223.223,0,0,0-.041-.027.251.251,0,0,0-.046-.016.273.273,0,0,0-.05-.007.3.3,0,0,0-.051,0,.343.343,0,0,0-.1.04l-.047.026a.521.521,0,0,0-.148.135c-.014.018-.029.04-.041.059s-.025.044-.035.065-.021.046-.03.069-.016.047-.022.069-.011.05-.015.071-.006.048-.007.07" fill="#84d9f5"/>
        <path id="Path_1079" data-name="Path 1079" d="M175.861,195.925v.884l-1.435-.829.766-.442a.815.815,0,0,1,.116-.055.714.714,0,0,1,.075-.023.628.628,0,0,1,.072-.011.4.4,0,0,1,.069,0,.276.276,0,0,1,.064.011.3.3,0,0,1,.059.022.415.415,0,0,1,.053.032.381.381,0,0,1,.046.044.364.364,0,0,1,.039.053.447.447,0,0,1,.031.062.573.573,0,0,1,.024.07.558.558,0,0,1,.014.077.713.713,0,0,1,.007.082Z" fill="#4dafdb"/>
        <path id="Path_1080" data-name="Path 1080" d="M176.26,197.573a.147.147,0,0,1-.038.032v-.155a.109.109,0,0,1,.054.062v.015a.079.079,0,0,1-.017.046" fill="#c2edfc"/>
        <path id="Path_1081" data-name="Path 1081" d="M169.885,200.224v.884l-2.913-1.682v-.884Z" fill="#4dafdb"/>
        <path id="Path_1082" data-name="Path 1082" d="M178.311,164.534v30.521a.457.457,0,0,1-.037.18.724.724,0,0,1-.224.295,1.318,1.318,0,0,1-.155.1V165.1a.924.924,0,0,0,.328-.293A.562.562,0,0,0,178.311,164.534Z" fill="#c2edfc"/>
        <path id="Path_1083" data-name="Path 1083" d="M178.3,161.728a.6.6,0,0,0-.02-.092.656.656,0,0,0-.032-.088.6.6,0,0,0-.043-.084.839.839,0,0,0-.053-.079.871.871,0,0,0-.063-.073c-.022-.023-.046-.046-.07-.068a1.277,1.277,0,0,0-.187-.132l-7.9-4.561c-.03-.018-.064-.036-.1-.051s-.068-.031-.1-.045-.071-.027-.107-.038-.074-.023-.112-.032-.076-.019-.115-.026a2.051,2.051,0,0,0-.239-.032c-.08-.006-.162-.008-.242-.006a2.358,2.358,0,0,0-.239.02,2.092,2.092,0,0,0-.228.046c-.038.009-.074.02-.11.031s-.07.024-.1.038-.066.028-.1.044-.063.031-.093.049l0,0-10.861,6.27a1.205,1.205,0,0,0-.187.132c-.024.021-.048.044-.07.067a.83.83,0,0,0-.062.073c-.019.025-.038.053-.054.079a.743.743,0,0,0-.043.084.58.58,0,0,0-.032.088.675.675,0,0,0-.027.187v2.091h0a.5.5,0,0,0,.037.186.668.668,0,0,0,.141.211,1.178,1.178,0,0,0,.238.181v-2.09l7.9,4.562v2.1a2.324,2.324,0,0,0,.431.166,2.088,2.088,0,0,0,.377.062,2.448,2.448,0,0,0,.383,0,2.194,2.194,0,0,0,.377-.06,2.01,2.01,0,0,0,.36-.13l.08-.041v-2.093L177.9,162.4v2.091a.927.927,0,0,0,.327-.292.562.562,0,0,0,.089-.293v-2.086a.744.744,0,0,0-.007-.094m-.506.042a.6.6,0,0,1-.182.148l-10.861,6.271a1.192,1.192,0,0,1-.341.13,1.819,1.819,0,0,1-.768,0,1.192,1.192,0,0,1-.341-.13l-7.9-4.562a.6.6,0,0,1-.182-.149.3.3,0,0,1-.068-.235.522.522,0,0,1,.25-.273l10.861-6.27a1.163,1.163,0,0,1,.341-.13,1.814,1.814,0,0,1,.767,0,1.132,1.132,0,0,1,.342.13l7.9,4.562a.52.52,0,0,1,.25.272.3.3,0,0,1-.068.236" fill="#c2edfc"/>
        <path id="Path_1084" data-name="Path 1084" d="M177.9,165.03v30.609l-2.034,1.174v-.907a.752.752,0,0,0-.007-.083.619.619,0,0,0-.014-.077.719.719,0,0,0-.024-.07.387.387,0,0,0-.031-.061.3.3,0,0,0-.039-.053.382.382,0,0,0-.046-.044.355.355,0,0,0-.053-.032.3.3,0,0,0-.059-.022.276.276,0,0,0-.064-.011.4.4,0,0,0-.069,0,.628.628,0,0,0-.072.011.714.714,0,0,0-.075.023.81.81,0,0,0-.116.055l-.192.111-.574.331-4.689,2.708-.02.011q-.037.024-.075.051c-.025.019-.049.039-.074.061s-.048.043-.072.068-.046.049-.069.076-.044.054-.065.083-.041.057-.061.088-.037.06-.055.093-.033.063-.048.1-.029.064-.042.1-.024.065-.034.1-.019.065-.027.1-.013.064-.017.1l-.006.048c0,.031,0,.062,0,.092v.884l-2.034,1.175,0-30.615,0-.006c1.205-.667,9.969-5.744,10.862-6.259" fill="#4dafdb"/>
        <path id="Path_1085" data-name="Path 1085" d="M177.9,162.4v2.166q-1.326.765-2.652,1.531l-2.21,1.276c-.59.34-1.178.683-1.768,1.021-.443.254-.886.507-1.326.765s-.878.524-1.326.766c-.307.166-1.241.732-1.579.913v-2.166Z" fill="#4dafdb"/>
        <path id="Path_1086" data-name="Path 1086" d="M177.866,161.534a.3.3,0,0,1-.068.236.6.6,0,0,1-.182.148l-10.861,6.271a1.192,1.192,0,0,1-.341.13,1.819,1.819,0,0,1-.768,0,1.192,1.192,0,0,1-.341-.13l-7.9-4.562a.619.619,0,0,1-.182-.149.3.3,0,0,1-.068-.236.52.52,0,0,1,.25-.272l10.861-6.271a1.192,1.192,0,0,1,.341-.13,1.819,1.819,0,0,1,.768,0,1.192,1.192,0,0,1,.341.13l7.9,4.563a.517.517,0,0,1,.25.272" fill="#84d9f5"/>
        <path id="Path_1087" data-name="Path 1087" d="M167.034,171.369V201.9a1.646,1.646,0,0,1-.484.185,2.464,2.464,0,0,1-1.04,0,1.646,1.646,0,0,1-.484-.185V171.369a2.034,2.034,0,0,0,.294.132,1.865,1.865,0,0,0,.376.087,2.407,2.407,0,0,0,.77-.016,1.978,1.978,0,0,0,.372-.106c.019-.008.086-.044.193-.1Z" fill="#c2edfc"/>
        <path id="Path_1088" data-name="Path 1088" d="M165.026,171.369V201.9l-7.9-4.562V166.817a7.851,7.851,0,0,0,.709.386c.378.2.742.433,1.11.656.442.268.892.518,1.34.773.6.341,1.189.689,1.786,1.032.524.3,1.051.6,1.569.9.406.237.807.479,1.219.713.056.032.112.064.169.094" fill="#fff"/>
        <path id="Path_1089" data-name="Path 1089" d="M165.026,168.672v2.1l-.043-.022c-.266-.135-3.054-1.771-3.641-2.113s-1.175-.677-1.768-1.018c-.518-.3-1.04-.6-1.551-.9l-.77-.443c-.043-.025-.087-.05-.129-.076v-2.09Z" fill="#fff"/>
        <path id="Path_1090" data-name="Path 1090" d="M157.125,166.817l-.024-.016a1.094,1.094,0,0,1-.286-.26.63.63,0,0,1-.086-.172.525.525,0,0,1-.02-.13v-.617a.518.518,0,0,0,.037.186.668.668,0,0,0,.141.211,1.206,1.206,0,0,0,.238.181c.042.027.085.051.128.076l.77.443c.512.3,1.034.6,1.552.9.593.34,1.181.675,1.768,1.017s3.375,1.978,3.64,2.114l.044.022a2.466,2.466,0,0,0,.43.166,2.174,2.174,0,0,0,.378.061,2.435,2.435,0,0,0,.382,0,2.178,2.178,0,0,0,.377-.06,1.982,1.982,0,0,0,.36-.13c.02-.01.048-.023.081-.041.337-.182,1.271-.747,1.578-.913.449-.243.886-.507,1.326-.766s.884-.511,1.326-.765q.885-.509,1.768-1.022l2.21-1.275,2.652-1.531a.919.919,0,0,0,.327-.292.55.55,0,0,0,.089-.293v.626a.566.566,0,0,1-.088.275.93.93,0,0,1-.328.292l-2.678,1.547c-.684.394-6.981,4.049-8.186,4.715-.107.059-.173.095-.193.1a1.968,1.968,0,0,1-.371.106,2.407,2.407,0,0,1-.77.016,1.917,1.917,0,0,1-.376-.086,2.154,2.154,0,0,1-.294-.133c-.057-.03-.113-.061-.169-.093-.413-.235-.813-.477-1.219-.714-.518-.3-1.046-.6-1.569-.9-.6-.343-1.19-.691-1.787-1.031-.447-.256-.9-.506-1.339-.774-.369-.222-.732-.457-1.111-.656a7.834,7.834,0,0,1-.708-.386" fill="#4dafdb"/>
        <path id="Path_1091" data-name="Path 1091" d="M156.729,166.368a.578.578,0,0,0,.086.172,1.105,1.105,0,0,0,.285.26l.025.016v30.527a1.333,1.333,0,0,1-.156-.1.717.717,0,0,1-.223-.294.463.463,0,0,1-.038-.181V166.239h0a.517.517,0,0,0,.02.129" fill="#84d9f5"/>
        <path id="Path_1092" data-name="Path 1092" d="M176.038,196.258l0-.007.051.029.022.014,0,0,.005,0,.011.007.005,0,.018.016.01.01.008.009.009.01,0,0,.015.021,0,0,0,.005.007.011.006.011.012.023.005.012,0,.012.009.024,0,.012.006.025.006.026,0,.026a.475.475,0,0,1,.005.053v.9l0-.014a.109.109,0,0,0-.054-.062V196.7l0-.025,0-.023,0-.01,0-.01-.008-.021,0-.008a.077.077,0,0,0-.01-.018l0-.008-.012-.015-.008-.01-.014-.013-.007,0-.015-.01-.008,0-.007,0-.012-.005-.008,0a.058.058,0,0,0-.019,0l-.013,0h-.02l-.014,0-.021,0-.015,0-.022.007-.022.009-.023.011-.01.006-5.454,3.149a.429.429,0,0,0-.052.035l-.022.017-.014.014-.014.013-.015.014-.02.023-.013.016-.02.024-.008.012-.018.026-.011.018-.017.028-.006.012-.015.029-.009.019-.012.029,0,.013a.25.25,0,0,0-.011.029l0,.013c0,.01-.006.019-.008.029l-.005.019c0,.01,0,.019-.005.029l0,.018,0,.021v.916a.208.208,0,0,1-.064.025.325.325,0,0,1-.139,0,.2.2,0,0,1-.064-.025v-.93l0-.03,0-.027.007-.041.006-.026.012-.043,0-.018.015-.042.007-.018a.394.394,0,0,1,.018-.043l.012-.027c.006-.013.014-.028.021-.041l.009-.017.024-.041.016-.025c.008-.012.017-.026.026-.038l.011-.016c.009-.012.019-.025.029-.036l.018-.022c.01-.011.02-.023.03-.033l.02-.02.021-.02.021-.018.032-.027a.751.751,0,0,1,.072-.048l5.455-3.15.015-.008.032-.016.032-.013.032-.01.021-.006.03,0,.021,0h.028l.019,0,.027,0" fill="#c2edfc"/>
        <path id="Path_1093" data-name="Path 1093" d="M176.222,197.45v.155l-6.069,3.5v-.9l0-.02v-.021l0-.018c0-.01,0-.019.005-.029l0-.019.008-.029,0-.013a.248.248,0,0,1,.01-.029l.005-.013.012-.029.009-.019c0-.01.01-.019.014-.029l.007-.012.016-.028.012-.018.018-.026.008-.012.019-.024.014-.016c.006-.008.013-.015.02-.023l.014-.014.015-.013.014-.014.022-.017a.513.513,0,0,1,.051-.035l5.455-3.149.01-.006.023-.011.022-.009.022-.007.014,0,.022,0,.014,0h.02l.013,0a.063.063,0,0,1,.019,0l.008,0,.012.005.007,0,.008,0,.015.01.007,0,.014.013.008.01.011.015,0,.008a.075.075,0,0,1,.009.018l0,.008.007.021,0,.01,0,.01,0,.023,0,.025v.755Z" fill="#d9f8ff"/>
        <path id="Path_1094" data-name="Path 1094" d="M175.861,196.146v.127h0l-.032.013-.033.017-.014.008-5.455,3.149a.619.619,0,0,0-.073.049l-.032.026-.02.019c-.008.006-.014.013-.022.02l-.019.019-.03.033-.019.023-.028.036-.012.015c-.008.013-.017.026-.026.039l-.016.025-.023.04-.009.017c-.008.014-.015.029-.022.042l-.012.027-.017.042-.008.018c0,.014-.01.029-.014.043l-.006.018c0,.013-.008.029-.011.042l-.006.027-.008.041,0,.026,0,.03,0,.029v.017l-.813-.469c0-.015,0-.031.006-.047,0-.032.01-.064.017-.1s.016-.065.027-.1.021-.065.034-.1.026-.065.042-.1.03-.063.048-.1.035-.061.055-.092.039-.059.061-.089.042-.055.065-.082.045-.052.069-.077.047-.046.072-.068.049-.041.074-.06a.832.832,0,0,1,.075-.051l.02-.012,4.689-2.707.574-.331.861.5" fill="#84d9f5"/>
        <path id="Path_1095" data-name="Path 1095" d="M176.042,196.251l0,.007-.027,0-.019,0h-.029l-.02,0c-.01,0-.02,0-.03.006l-.021.005a.22.22,0,0,0-.031.01v-.127c.061.034.121.069.181.1" fill="#84d9f5"/>
      </g>
    </g>
  </g>
</svg>
