<svg width="580" height="646" viewBox="0 0 580 646" fill="none" xmlns="http://www.w3.org/2000/svg">
<path d="M532.381 387.778L421.27 323.111L529.492 259.556C539.85 253.854 548.573 245.591 554.825 235.556C562.643 222.855 565.976 207.899 564.292 193.081C562.607 178.262 556.003 164.436 545.534 153.814C535.065 143.191 521.337 136.386 506.545 134.486C491.752 132.586 476.75 135.701 463.936 143.333L357.047 206.667V78.6667C357.047 60.9856 350.024 44.0286 337.521 31.5262C325.019 19.0238 308.062 12 290.381 12C272.7 12 255.743 19.0238 243.24 31.5262C230.738 44.0286 223.714 60.9856 223.714 78.6667V206.667L115.936 143.333C108.36 138.225 99.8136 134.728 90.829 133.061C81.8444 131.394 72.6129 131.592 63.7079 133.642C54.8029 135.693 46.4146 139.552 39.0637 144.98C31.7128 150.409 25.5563 157.29 20.9767 165.198C16.397 173.106 13.4919 181.87 12.4417 190.948C11.3915 200.025 12.2188 209.222 14.872 217.966C17.5252 226.71 21.9478 234.816 27.8651 241.779C33.7823 248.742 41.068 254.415 49.2696 258.444L160.381 323.111L50.3807 386.667C40.0223 392.368 31.2998 400.631 25.0474 410.667C17.3368 423.367 14.0899 438.279 15.822 453.036C17.5541 467.792 24.1661 481.547 34.6081 492.117C45.0501 502.687 58.7238 509.465 73.4581 511.377C88.1925 513.288 103.143 510.222 115.936 502.667L223.714 439.556V565.333C223.189 579.539 227.218 593.541 235.214 605.294C243.209 617.048 254.753 625.938 268.159 630.667C278.234 634.229 289.019 635.317 299.604 633.839C310.188 632.36 320.262 628.359 328.976 622.172C337.69 615.985 344.789 607.793 349.675 598.288C354.56 588.783 357.089 578.243 357.047 567.556V439.556L464.825 502.889C472.402 507.997 480.948 511.494 489.933 513.161C498.917 514.828 508.149 514.63 517.054 512.58C525.959 510.529 534.347 506.67 541.698 501.242C549.049 495.813 555.205 488.932 559.785 481.024C564.365 473.117 567.27 464.352 568.32 455.275C569.37 446.197 568.543 437.001 565.89 428.256C563.236 419.512 558.814 411.406 552.896 404.443C546.979 397.48 539.694 391.807 531.492 387.778H532.381Z" fill="white" stroke="white" stroke-width="22.2222"/>
</svg>
