<svg id="Group_1025" data-name="Group 1025" xmlns="http://www.w3.org/2000/svg" xmlns:xlink="http://www.w3.org/1999/xlink" width="266.557" height="182.122" viewBox="0 0 266.557 182.122">
  <defs>
    <linearGradient id="linear-gradient" y1="0.5" x2="1" y2="0.5" gradientUnits="objectBoundingBox">
      <stop offset="0" stop-color="#831214"/>
      <stop offset="1" stop-color="#d8312f" stop-opacity="0"/>
    </linearGradient>
    <linearGradient id="linear-gradient-2" y1="0.5" x2="1" y2="0.5" gradientUnits="objectBoundingBox">
      <stop offset="0" stop-color="#191833"/>
      <stop offset="0.611" stop-color="#293d7f" stop-opacity="0.953"/>
      <stop offset="1" stop-color="#2a4080" stop-opacity="0"/>
    </linearGradient>
    <linearGradient id="linear-gradient-3" y1="0.5" x2="1" y2="0.5" gradientUnits="objectBoundingBox">
      <stop offset="0" stop-color="#191833"/>
      <stop offset="0.226" stop-color="#293d7f" stop-opacity="0.953"/>
      <stop offset="1" stop-color="#2a4080" stop-opacity="0"/>
    </linearGradient>
  </defs>
  <g id="Group_435" data-name="Group 435" transform="translate(47.237 43.851)">
    <path id="Path_913" data-name="Path 913" d="M205.267,103.817a7.959,7.959,0,0,0,.356,11.77h0l35.917,29.691-.03-13.72L221.289,115c-4.4-2.988-3.425-6.464-3.425-6.464.416-1.6,4.171-4.96,4.171-4.96l19.653-16.2V73.645L219.349,92.462Zm.927,12.215-.094-.069Z" transform="translate(-139.618 -73.537)" fill="#d72830"/>
    <rect id="Rectangle_143" data-name="Rectangle 143" width="10.566" height="71.844" transform="translate(52.383)" fill="#fff"/>
    <path id="Path_914" data-name="Path 914" d="M179.874,129.8" transform="translate(-137.527 -78.652)" fill="#221e1f"/>
    <path id="Path_915" data-name="Path 915" d="M246.931,158.419" transform="translate(-143.635 -81.258)" fill="#221e1f"/>
    <path id="Path_916" data-name="Path 916" d="M283.753,99.555a6.142,6.142,0,0,1-1.383.835,7.014,7.014,0,0,1-3.454.494,6.266,6.266,0,0,1-2.567-1.274l-.235-.187h0L271.7,95.9l-4.386-3.634-4.024-3.278L245.563,73.644V87.382l20.043,16.812s3.068,1.993,3.426,4.345c0,0,.971,3.477-3.426,6.464l-20.221,16.554.03,13.72L315.382,87.7V73.639Z" transform="translate(-143.494 -73.536)" fill="#2a3b7d"/>
    <path id="Path_917" data-name="Path 917" d="M146.908,94.87c-2.971-2.148-3.338-4.54-2.764-6.594.166-.544,2.783-8.431,13.739-7a16.675,16.675,0,0,1,2.038.513,17.39,17.39,0,0,1,8.378,6.455,5.291,5.291,0,0,1,1.243,3.517h5.489c2.649.063,5.087.178,5.087.178l-.154-.951-.012-.072-.018-.015a28.847,28.847,0,0,0-3.145-6.659,22.739,22.739,0,0,0-12.13-9.417,24.655,24.655,0,0,0-8.724-1.16,34.056,34.056,0,0,0-10.277,1.793,23.123,23.123,0,0,0-7.544,4.268,14.113,14.113,0,0,0-4.274,6.406,15.213,15.213,0,0,0,6.679,16.74l17.638,13.4c1.3.889,5.432,3.7,8.347,5.89a11.312,11.312,0,0,1,2.879,3.493,7.628,7.628,0,0,1,.461,2.734h0a9.372,9.372,0,0,1-3,5.83l-.044.039a8.74,8.74,0,0,1-2.722,1.572,13.962,13.962,0,0,1-2.071.515c-.254.04-.5.091-.766.117-1.472.191-2.713.185-3.188.225-.112.005-.222.016-.334.021a13.082,13.082,0,0,1-7.948-2.6c-.314-.234-.613-.478-.887-.73a4.715,4.715,0,0,0-.481-.386,12.436,12.436,0,0,1-3.356-5.491c-.085-.422-.174-.85-.289-1.283l-11.475.383A26.306,26.306,0,0,0,136,134.242a19.165,19.165,0,0,0,5.036,5.931,18.6,18.6,0,0,0,6.747,3.761,31.93,31.93,0,0,0,10.177,1.113c4.1-.136,7.819-.489,10.824-1.883a18.138,18.138,0,0,0,6.082-3.943,18.668,18.668,0,0,0,4.537-6.777c1.007-2.433,1.023-4.216.932-7.018a14.047,14.047,0,0,0-3.11-7.7,38.941,38.941,0,0,0-5.977-5.634q-3.1-2.323-6.367-4.524t-6.361-4.356l-8.131-5.842-3.478-2.5" transform="translate(-133.283 -73.537)" fill="#fff"/>
    <path id="Path_918" data-name="Path 918" d="M213.716,98.919a8.28,8.28,0,0,0-.811,8.037c1.01,2.43,3.936,4.746,7.829,8.135,0,0-2.56-2.212-2.033-5.286a6.827,6.827,0,0,1,1.356-2.115l1.136-1.253,1.372-1.341.575-.5.662-.532,9.112-7.52-4.841-9.474-7.919,6.66-3.038,2.454Z" transform="translate(-140.473 -74.759)" fill="url(#linear-gradient)"/>
    <path id="Path_919" data-name="Path 919" d="M295.475,108.144s-3.057,2.261-7.718.5c-2.461-.932-4.87-3.783-8.379-7.567,0,0,2.907,3.142,7.471.006l3.131-2.5,9.923-8.191,11.13,4.971-11.767,9.683Z" transform="translate(-146.59 -75.061)" fill="url(#linear-gradient-2)"/>
    <path id="Path_921" data-name="Path 921" d="M148.273,118.015" transform="translate(-134.648 -77.578)" fill="#221e1f"/>
    <path id="Path_922" data-name="Path 922" d="M245.581,73.645V87.382l11.505,9.65.486-13.005" transform="translate(-143.512 -73.537)" fill="url(#linear-gradient-3)"/>
    <path id="Path_923" data-name="Path 923" d="M245.414,150.089l-.033-13.721,12.067-9.866-.035,13.709Z" transform="translate(-143.493 -78.351)" fill="url(#linear-gradient-3)"/>
  </g>
  <g id="Group_441" data-name="Group 441" transform="translate(0 0)">
    <g id="Group_438" data-name="Group 438" transform="translate(47.471 120.486)">
      <g id="Group_437" data-name="Group 437">
        <g id="Group_436" data-name="Group 436" transform="translate(0 9.543)">
          <path id="Path_924" data-name="Path 924" d="M133.54,168.466h1.165V176.6H133.54Z" transform="translate(-133.54 -168.351)" fill="#fff"/>
          <path id="Path_925" data-name="Path 925" d="M144.054,174.706v1.282a6.083,6.083,0,0,1-2.959.7,4.559,4.559,0,0,1-2.313-.548,4.021,4.021,0,0,1-1.5-1.508,4.1,4.1,0,0,1-.554-2.08,3.972,3.972,0,0,1,1.267-2.988,4.346,4.346,0,0,1,3.125-1.212,7.336,7.336,0,0,1,2.849.67v1.253a5.617,5.617,0,0,0-2.789-.815,3.225,3.225,0,0,0-2.321.882,2.935,2.935,0,0,0-.923,2.211,2.9,2.9,0,0,0,.908,2.2,3.24,3.24,0,0,0,2.325.863A5.281,5.281,0,0,0,144.054,174.706Z" transform="translate(-133.83 -168.34)" fill="#fff"/>
          <path id="Path_926" data-name="Path 926" d="M145.864,168.454h6.8v1.037h-2.837V176.6h-1.171v-7.111h-2.79Z" transform="translate(-134.662 -168.349)" fill="#fff"/>
          <path id="Path_927" data-name="Path 927" d="M158.655,176.6v-8.148h2.58a2.659,2.659,0,0,1,1.858.629,2.167,2.167,0,0,1,.694,1.689,2.259,2.259,0,0,1-.355,1.259,2.038,2.038,0,0,1-.973.8,4.962,4.962,0,0,1-1.771.247h-.863V176.6Zm2.377-7.111h-1.206v2.545H161.1a1.616,1.616,0,0,0,1.094-.334,1.2,1.2,0,0,0,.385-.958Q162.582,169.491,161.032,169.491Z" transform="translate(-135.828 -168.349)" fill="#fff"/>
          <path id="Path_928" data-name="Path 928" d="M171.324,168.466h1.171v4.62a5.507,5.507,0,0,1-.136,1.415,3.072,3.072,0,0,1-.338.794,2.5,2.5,0,0,1-.493.568A3.735,3.735,0,0,1,169,176.7a3.778,3.778,0,0,1-2.551-.827,2.607,2.607,0,0,1-.492-.574,2.946,2.946,0,0,1-.333-.777,5.763,5.763,0,0,1-.131-1.444v-4.608h1.171v4.62a3.434,3.434,0,0,0,.262,1.6,1.864,1.864,0,0,0,.8.719,2.763,2.763,0,0,0,1.263.272,2.555,2.555,0,0,0,1.69-.543,1.677,1.677,0,0,0,.5-.688,4.229,4.229,0,0,0,.151-1.356Z" transform="translate(-136.45 -168.351)" fill="#fff"/>
          <path id="Path_929" data-name="Path 929" d="M177.989,176.6h-2.755v-8.138h2.131a3.708,3.708,0,0,1,1.573.271,1.95,1.95,0,0,1,1.159,1.844,1.771,1.771,0,0,1-1.241,1.718,2.521,2.521,0,0,1,1.419.733,1.919,1.919,0,0,1,.527,1.352,1.981,1.981,0,0,1-.321,1.112,2.328,2.328,0,0,1-.941.8A3.463,3.463,0,0,1,177.989,176.6Zm-.588-7.1h-1v2.447h.774a1.967,1.967,0,0,0,1.325-.355,1.185,1.185,0,0,0,.394-.92Q178.892,169.5,177.4,169.5Zm.088,3.484H176.4v2.579h1.147a3.717,3.717,0,0,0,1.3-.148,1.238,1.238,0,0,0,.548-.463,1.213,1.213,0,0,0,.206-.675,1.158,1.158,0,0,0-.218-.683,1.288,1.288,0,0,0-.621-.459A3.855,3.855,0,0,0,177.489,172.987Z" transform="translate(-137.338 -168.351)" fill="#fff"/>
          <path id="Path_930" data-name="Path 930" d="M182.886,168.466h1.164v7.078h3.665v1.06h-4.829Z" transform="translate(-138.035 -168.351)" fill="#fff"/>
          <path id="Path_931" data-name="Path 931" d="M189.6,168.466h1.165V176.6H189.6Z" transform="translate(-138.646 -168.351)" fill="#fff"/>
          <path id="Path_932" data-name="Path 932" d="M200.109,174.706v1.282a6.083,6.083,0,0,1-2.959.7,4.559,4.559,0,0,1-2.313-.548,4.021,4.021,0,0,1-1.5-1.508,4.1,4.1,0,0,1-.554-2.08,3.972,3.972,0,0,1,1.267-2.988,4.346,4.346,0,0,1,3.126-1.212,7.335,7.335,0,0,1,2.848.67v1.253a5.617,5.617,0,0,0-2.789-.815,3.225,3.225,0,0,0-2.321.882,2.935,2.935,0,0,0-.923,2.211,2.9,2.9,0,0,0,.909,2.2,3.236,3.236,0,0,0,2.324.863A5.279,5.279,0,0,0,200.109,174.706Z" transform="translate(-138.936 -168.34)" fill="#fff"/>
          <path id="Path_933" data-name="Path 933" d="M213.573,174.706v1.282a6.078,6.078,0,0,1-2.959.7,4.559,4.559,0,0,1-2.313-.548,4.021,4.021,0,0,1-1.5-1.508,4.1,4.1,0,0,1-.553-2.08,3.972,3.972,0,0,1,1.267-2.988,4.346,4.346,0,0,1,3.126-1.212,7.335,7.335,0,0,1,2.848.67v1.253a5.615,5.615,0,0,0-2.789-.815,3.225,3.225,0,0,0-2.321.882,2.935,2.935,0,0,0-.923,2.211,2.9,2.9,0,0,0,.909,2.2,3.237,3.237,0,0,0,2.324.863A5.279,5.279,0,0,0,213.573,174.706Z" transform="translate(-140.162 -168.34)" fill="#fff"/>
          <path id="Path_934" data-name="Path 934" d="M220.1,168.339a4.374,4.374,0,0,1,3.14,1.193,3.962,3.962,0,0,1,1.254,2.995,3.9,3.9,0,0,1-1.265,2.979,4.507,4.507,0,0,1-3.194,1.179,4.245,4.245,0,0,1-3.064-1.179,3.935,3.935,0,0,1-1.226-2.957,4.023,4.023,0,0,1,1.234-3.018A4.3,4.3,0,0,1,220.1,168.339Zm.046,1.106a3.159,3.159,0,0,0-2.3.873,2.975,2.975,0,0,0-.9,2.231,2.926,2.926,0,0,0,.9,2.191,3.349,3.349,0,0,0,4.531-.018,2.977,2.977,0,0,0,.911-2.219,2.909,2.909,0,0,0-.911-2.176A3.094,3.094,0,0,0,220.149,169.445Z" transform="translate(-141.028 -168.339)" fill="#fff"/>
          <path id="Path_935" data-name="Path 935" d="M233.683,168.466h1.088V176.6H233.6v-6.331l-2.5,3.145h-.215l-2.532-3.145V176.6h-1.164v-8.138h1.1l2.7,3.343Z" transform="translate(-142.07 -168.351)" fill="#fff"/>
          <path id="Path_936" data-name="Path 936" d="M237.653,176.6v-8.148h2.581a2.662,2.662,0,0,1,1.858.629,2.17,2.17,0,0,1,.693,1.689,2.265,2.265,0,0,1-.355,1.259,2.041,2.041,0,0,1-.973.8,4.962,4.962,0,0,1-1.771.247h-.862V176.6Zm2.377-7.111h-1.205v2.545H240.1a1.62,1.62,0,0,0,1.1-.334,1.207,1.207,0,0,0,.384-.958Q241.58,169.491,240.03,169.491Z" transform="translate(-143.023 -168.349)" fill="#fff"/>
          <path id="Path_937" data-name="Path 937" d="M246.134,168.415h.819L250.6,176.6h-1.192l-1.083-2.41h-3.472l-1.017,2.41h-1.2Zm1.712,4.736-1.313-2.948-1.218,2.948Z" transform="translate(-143.477 -168.346)" fill="#fff"/>
          <path id="Path_938" data-name="Path 938" d="M259.112,168.466h1.107V176.6h-1l-5.442-6.267V176.6h-1.094v-8.138h.943l5.487,6.321Z" transform="translate(-144.392 -168.351)" fill="#fff"/>
          <path id="Path_939" data-name="Path 939" d="M267.958,168.466h1.413l-3.006,3.833v4.3h-1.193v-4.3l-3.007-3.833h1.407l2.178,2.806Z" transform="translate(-145.256 -168.351)" fill="#fff"/>
          <path id="Path_940" data-name="Path 940" d="M275.252,168.466h1.165v7.078h3.664v1.06h-4.829Z" transform="translate(-146.448 -168.351)" fill="#fff"/>
          <path id="Path_941" data-name="Path 941" d="M281.962,168.466h1.164V176.6h-1.164Z" transform="translate(-147.059 -168.351)" fill="#fff"/>
          <path id="Path_942" data-name="Path 942" d="M291.961,168.466h1.089V176.6h-1.17v-6.331l-2.5,3.145h-.215l-2.531-3.145V176.6h-1.165v-8.138h1.1l2.7,3.343Z" transform="translate(-147.378 -168.351)" fill="#fff"/>
          <path id="Path_943" data-name="Path 943" d="M296.015,168.466h1.165V176.6h-1.165Z" transform="translate(-148.339 -168.351)" fill="#fff"/>
          <path id="Path_944" data-name="Path 944" d="M298.784,168.454h6.8v1.037h-2.837V176.6h-1.171v-7.111h-2.79Z" transform="translate(-148.591 -168.349)" fill="#fff"/>
          <path id="Path_945" data-name="Path 945" d="M307.736,168.466h4.614V169.5H308.9v2.481h3.332v1.043H308.9v2.528h3.559v1.037h-4.725Z" transform="translate(-149.407 -168.351)" fill="#fff"/>
          <path id="Path_946" data-name="Path 946" d="M314.574,176.593v-8.127h2.744a5.8,5.8,0,0,1,2.628.5,3.755,3.755,0,0,1,1.537,1.466,4.069,4.069,0,0,1,.571,2.109,3.978,3.978,0,0,1-1.211,2.87,3.921,3.921,0,0,1-1.382.88,4.072,4.072,0,0,1-.844.242,11.243,11.243,0,0,1-1.468.062Zm2.621-7.09h-1.456v6.053h1.492a5.878,5.878,0,0,0,1.357-.12,3.188,3.188,0,0,0,.807-.3,2.8,2.8,0,0,0,.592-.452,3.018,3.018,0,0,0,.862-2.209,2.792,2.792,0,0,0-.885-2.137,2.84,2.84,0,0,0-.749-.507,3.054,3.054,0,0,0-.8-.262A8.143,8.143,0,0,0,317.2,169.5Z" transform="translate(-150.029 -168.351)" fill="#fff"/>
        </g>
        <path id="Path_947" data-name="Path 947" d="M246.727,157.84" transform="translate(-143.85 -157.84)" fill="#fff"/>
      </g>
    </g>
    <g id="Group_440" data-name="Group 440">
      <line id="Line_32" data-name="Line 32" x2="266.527" transform="translate(0.029 115.626)" fill="none"/>
      <g id="Group_439" data-name="Group 439">
        <path id="Path_948" data-name="Path 948" d="M224.956,191.525l-4.949,4.7s-3.888,3.123.831,7.135l21.132,17.892,22.237-18.444s3.593-4.038-.262-7.3L242.278,177.32Z" transform="translate(-93.808 -39.129)" fill="none" opacity="0.25"/>
        <path id="Path_949" data-name="Path 949" d="M225.715,39.6l-4.95,4.7s-3.887,3.123.832,7.135l21.132,17.892,22.237-18.444s3.593-4.038-.263-7.3L243.037,25.4Z" transform="translate(-93.877 -25.291)" fill="none" opacity="0.25"/>
        <path id="Path_950" data-name="Path 950" d="M329.074,102.717l-4.949,4.7s-3.887,3.122.832,7.135l21.132,17.892L368.326,114s3.593-4.038-.262-7.3L346.4,88.512Z" transform="translate(-103.291 -31.04)" fill="none" opacity="0.25"/>
        <path id="Path_951" data-name="Path 951" d="M87.767,102.717l-4.95,4.7s-3.887,3.122.832,7.135l21.132,17.892L127.018,114s3.593-4.038-.262-7.3L105.089,88.512Z" transform="translate(-81.312 -31.04)" fill="none" opacity="0.25"/>
        <rect id="Rectangle_144" data-name="Rectangle 144" width="266.527" height="181.658" transform="translate(0.029 0.464)" fill="none"/>
        <line id="Line_33" data-name="Line 33" x2="266.527" transform="translate(0.029 129.841)" fill="none"/>
        <line id="Line_34" data-name="Line 34" x2="266.527" transform="translate(0.029 43.742)" fill="none"/>
        <line id="Line_35" data-name="Line 35" x2="266.527" transform="translate(0.029 138.575)" fill="none"/>
        <line id="Line_36" data-name="Line 36" y2="182.122" transform="translate(47.228)" fill="none"/>
        <line id="Line_37" data-name="Line 37" y2="182.122" transform="translate(219.329)" fill="none"/>
      </g>
    </g>
  </g>
</svg>
