<svg width="903" height="903" viewBox="0 0 903 903" fill="none" xmlns="http://www.w3.org/2000/svg">
<path fill-rule="evenodd" clip-rule="evenodd" d="M511.039 307.586H746.919L747 829.421C746.979 836.198 744.279 842.692 739.489 847.484C734.699 852.277 728.21 854.979 721.436 855H180.483C173.724 854.958 167.254 852.246 162.482 847.456C157.71 842.666 155.021 836.184 155 829.421V73.5793C155.021 66.8157 157.71 60.334 162.482 55.5438C167.254 50.7537 173.724 48.0425 180.483 48H485.475V282.007C485.496 288.784 488.196 295.278 492.986 300.07C497.775 304.863 504.265 307.565 511.039 307.586ZM745.548 243.436H549.586V48.4842L745.548 243.436ZM420 515H483V775H420V515ZM451 412C430.013 412 413 429.013 413 450V453C413 473.987 430.013 491 451 491C471.987 491 489 473.987 489 453V450C489 429.013 471.987 412 451 412Z" fill="white"/>
</svg>
