<svg width="322" height="770" viewBox="0 0 322 770" fill="none" xmlns="http://www.w3.org/2000/svg">
<path d="M159.75 0.3125C195.062 0.3125 223.812 29.0625 223.812 64.375C223.812 99.6875 195.062 128.438 159.75 128.438C124.438 128.438 95.6875 99.6875 95.6875 64.375C95.6875 29.0625 124.438 0.3125 159.75 0.3125ZM240.375 145H80.375C36 145 0.375 180.625 0.375 225V420.625C0.375 435.938 12.5625 448.75 28.5 448.75C44.4375 448.75 56.625 436.562 56.625 420.625V240.938C56.625 236.562 60.375 232.812 64.75 232.812C69.125 232.812 72.875 236.562 72.875 240.938V725.938C72.875 750 90.6875 769.688 112.875 769.688C135.062 769.688 152.875 750 152.875 725.938V449.375C152.875 445 156.625 441.25 161 441.25C165.375 441.25 169.125 445 169.125 449.375V725.938C169.125 750 186.938 769.688 209.125 769.688C231.313 769.688 249.125 750 249.125 725.938V240.938C249.125 236.562 252.875 232.812 257.25 232.812C261.625 232.812 265.375 236.562 265.375 240.938V420.938C265.375 436.25 277.562 449.063 293.5 449.063C309.438 449.063 321.625 436.875 321.625 420.938V225C320.375 180.625 283.813 145 240.375 145Z" fill="white"/>
</svg>
