<svg width="402" height="563" viewBox="0 0 402 563" fill="none" xmlns="http://www.w3.org/2000/svg">
<path fill-rule="evenodd" clip-rule="evenodd" d="M200.938 20.1022L215.566 6.31793C213.687 4.32304 211.42 2.73348 208.905 1.64698C206.389 0.560479 203.678 0 200.938 0C198.197 0 195.486 0.560479 192.97 1.64698C190.455 2.73348 188.188 4.32304 186.309 6.31793L186.229 6.39831L185.988 6.67962L185.104 7.60393L181.889 11.1404C164.12 30.8616 147.043 51.1954 130.69 72.1049C99.7856 111.609 61.8084 165.541 34.8426 221.884C14.789 263.799 0 308.729 0 350.966C0 466.746 88.8947 562.633 200.938 562.633C312.98 562.633 401.875 466.746 401.875 350.966C401.875 308.769 387.086 263.799 367.032 221.884C340.067 165.541 302.089 111.609 271.185 72.1049C253.847 49.9425 235.697 28.4275 216.771 7.60393L215.887 6.67962L215.646 6.39831L215.566 6.35812L200.938 20.1022ZM200.938 522.446C113.564 522.446 40.7138 447.317 40.1903 352H361.685C361.161 447.317 288.311 522.446 200.938 522.446ZM192.679 181.84C192.679 202.186 176.186 218.679 155.84 218.679C135.494 218.679 119 202.186 119 181.84C119 161.494 135.494 145 155.84 145C176.186 145 192.679 161.494 192.679 181.84ZM171.924 181.84C171.924 190.723 164.723 197.925 155.839 197.925C146.956 197.925 139.755 190.723 139.755 181.84C139.755 172.956 146.956 165.755 155.839 165.755C164.723 165.755 171.924 172.956 171.924 181.84ZM247.16 297.547C267.506 297.547 284 281.054 284 260.708C284 240.362 267.506 223.868 247.16 223.868C226.814 223.868 210.321 240.362 210.321 260.708C210.321 281.054 226.814 297.547 247.16 297.547ZM247.16 276.793C256.044 276.793 263.245 269.591 263.245 260.708C263.245 251.824 256.044 244.623 247.16 244.623C238.277 244.623 231.076 251.824 231.076 260.708C231.076 269.591 238.277 276.793 247.16 276.793ZM263.783 160.399C258.718 155.333 250.504 155.333 245.439 160.399L130.248 275.589C125.183 280.655 125.183 288.868 130.248 293.934C135.314 299 143.527 299 148.593 293.934L263.783 178.743C268.849 173.678 268.849 165.464 263.783 160.399Z" fill="white"/>
<path d="M35 365L51.3248 350.084C66.6706 336.061 95.1833 336.618 109.566 351.22C123.728 365.598 151.683 366.4 167.225 352.875L170.769 349.792C187.302 335.403 216.698 335.403 233.231 349.792L236.775 352.875C252.317 366.4 280.271 365.598 294.435 351.22C308.817 336.618 337.329 336.061 352.675 350.084L369 365" fill="white"/>
<path d="M35 365L51.3248 350.084C66.6706 336.061 95.1833 336.618 109.566 351.22C123.728 365.598 151.683 366.4 167.225 352.875L170.769 349.792C187.302 335.403 216.698 335.403 233.231 349.792L236.775 352.875C252.317 366.4 280.271 365.598 294.435 351.22C308.817 336.618 337.329 336.061 352.675 350.084L369 365" stroke="white" stroke-width="33.67" stroke-linecap="round" stroke-linejoin="round"/>
</svg>
