<svg width="903" height="903" viewBox="0 0 903 903" fill="none" xmlns="http://www.w3.org/2000/svg">
<path fill-rule="evenodd" clip-rule="evenodd" d="M451.5 868C221.473 868 35 681.527 35 451.5C35 221.473 221.473 35 451.5 35C681.527 35 868 221.473 868 451.5C868 681.527 681.527 868 451.5 868ZM481.2 756.174C479.48 768.675 477.585 785.155 477.961 802.118V853.868C688.376 840.547 855.509 665.228 855.509 451.52C855.509 229.169 674.612 48.2719 452.261 48.2719C442.717 48.2719 433.294 48.729 423.912 49.3876L398.252 112.321C397.54 114.176 324.955 301.404 238.781 449.41C212.301 494.856 206.776 533.998 222.328 565.707C246.765 615.535 317.616 637.324 355.615 642.351L359.446 642.848L359.498 642.855C401.339 648.364 444.581 654.057 467.302 683.805C480.878 701.575 485.408 725.245 481.2 756.174ZM657.823 411.115C660.296 415.322 717.961 514.454 676.91 573.207C650.726 610.682 592.147 621.328 502.868 604.903C398.131 585.627 355.373 586.568 338.625 589.176C348.881 593.517 365.482 596.703 376.41 591.73C383.198 588.638 391.142 591.636 394.22 598.383C397.298 605.144 394.314 613.115 387.566 616.193C380.039 619.621 371.342 621.127 362.484 621.127C342.039 621.127 320.681 613.102 310.559 602.201C303.556 594.647 301.97 585.439 306.312 577.549L306.314 577.545C311.235 568.577 324.335 544.702 507.734 578.449C584.647 592.63 635.51 585.466 654.839 557.817C680.741 520.825 649.046 449.222 634.663 424.771C630.9 418.387 633.023 410.134 639.422 406.37C645.874 402.593 654.06 404.743 657.823 411.115Z" fill="white"/>
</svg>
