<svg width="534" height="734" viewBox="0 0 534 734" fill="none" xmlns="http://www.w3.org/2000/svg">
<path d="M317.333 133.667C317.333 98.3044 303.286 64.3905 278.281 39.3857C253.276 14.3808 219.362 0.333252 184 0.333252C148.638 0.333252 114.724 14.3808 89.7191 39.3857C64.7142 64.3905 50.6666 98.3044 50.6666 133.667V425.333C34.4926 441.836 21.747 461.378 13.1653 482.833C4.58351 504.287 0.335594 527.229 0.666644 550.333C0.666644 598.956 19.9821 645.588 54.3637 679.969C88.7454 714.351 135.377 733.667 184 733.667C232.623 733.667 279.255 714.351 313.636 679.969C348.018 645.588 367.333 598.956 367.333 550.333C367.664 527.229 363.416 504.287 354.835 482.833C346.253 461.378 333.507 441.836 317.333 425.333V133.667ZM184 667C153.058 667 123.383 654.708 101.504 632.829C79.6249 610.95 67.3333 581.275 67.3333 550.333C67.1662 531.599 71.6458 513.116 80.3714 496.537C89.097 479.959 101.796 465.802 117.333 455.333V133.667C117.333 115.985 124.357 99.0286 136.86 86.5261C149.362 74.0237 166.319 66.9999 184 66.9999C201.681 66.9999 218.638 74.0237 231.14 86.5261C243.643 99.0286 250.667 115.985 250.667 133.667V455.333C266.204 465.802 278.903 479.959 287.629 496.537C296.354 513.116 300.834 531.599 300.667 550.333C300.667 581.275 288.375 610.95 266.496 632.829C244.617 654.708 214.942 667 184 667Z" fill="white"/>
<path d="M217.333 473.667V250.333H150.667V473.667C135.887 480.344 123.326 491.11 114.466 504.695C105.606 518.28 100.818 534.116 100.667 550.333C100.667 572.435 109.446 593.631 125.074 609.259C140.702 624.887 161.899 633.667 184 633.667C206.101 633.667 227.297 624.887 242.926 609.259C258.554 593.631 267.333 572.435 267.333 550.333C267.182 534.116 262.393 518.28 253.534 504.695C244.674 491.11 232.113 480.344 217.333 473.667Z" fill="white"/>
<path d="M500.667 350.333H400.667C391.826 350.333 383.348 353.845 377.096 360.096C370.845 366.348 367.333 374.826 367.333 383.667C367.333 392.507 370.845 400.986 377.096 407.237C383.348 413.488 391.826 417 400.667 417H500.667C509.507 417 517.986 413.488 524.237 407.237C530.488 400.986 534 392.507 534 383.667C534 374.826 530.488 366.348 524.237 360.096C517.986 353.845 509.507 350.333 500.667 350.333Z" fill="white"/>
<path d="M500.667 250.333H400.667C391.826 250.333 383.348 253.845 377.096 260.096C370.845 266.348 367.333 274.826 367.333 283.667C367.333 292.507 370.845 300.986 377.096 307.237C383.348 313.488 391.826 317 400.667 317H500.667C509.507 317 517.986 313.488 524.237 307.237C530.488 300.986 534 292.507 534 283.667C534 274.826 530.488 266.348 524.237 260.096C517.986 253.845 509.507 250.333 500.667 250.333Z" fill="white"/>
<path d="M500.667 150.333H400.667C391.826 150.333 383.348 153.845 377.096 160.096C370.845 166.348 367.333 174.826 367.333 183.667C367.333 192.507 370.845 200.986 377.096 207.237C383.348 213.488 391.826 217 400.667 217H500.667C509.507 217 517.986 213.488 524.237 207.237C530.488 200.986 534 192.507 534 183.667C534 174.826 530.488 166.348 524.237 160.096C517.986 153.845 509.507 150.333 500.667 150.333Z" fill="white"/>
<path d="M400.667 117H500.667C509.507 117 517.986 113.488 524.237 107.237C530.488 100.986 534 92.5071 534 83.6666C534 74.826 530.488 66.3476 524.237 60.0964C517.986 53.8451 509.507 50.3333 500.667 50.3333H400.667C391.826 50.3333 383.348 53.8451 377.096 60.0964C370.845 66.3476 367.333 74.826 367.333 83.6666C367.333 92.5071 370.845 100.986 377.096 107.237C383.348 113.488 391.826 117 400.667 117Z" fill="white"/>
</svg>
