<svg width="903" height="903" viewBox="0 0 903 903" fill="none" xmlns="http://www.w3.org/2000/svg">
<path fill-rule="evenodd" clip-rule="evenodd" d="M189.95 51H640.967C631.87 60.9953 623.523 72.4656 615.853 85.1453C597.461 115.595 582.917 153.181 572.808 195.689C562.723 238.197 557.126 285.653 557.126 335.783V345.691H521.767V365.52H557.126V850.973C556.468 850.439 555.8 849.884 555.087 849.292L554.827 849.075C539.627 848.9 532.04 842.541 524.478 836.204C516.865 829.824 509.277 823.466 493.977 823.459C478.722 823.454 471.094 829.85 463.467 836.245C455.838 842.642 448.21 849.037 432.952 849.025C417.703 849.013 410.081 842.611 402.46 836.209C394.837 829.807 387.214 823.405 371.962 823.398C356.721 823.392 349.096 829.785 341.472 836.177C333.846 842.57 326.221 848.962 310.975 848.95C295.72 848.938 288.098 842.539 280.477 836.141C272.854 829.741 265.232 823.342 249.975 823.336C234.719 823.33 227.084 829.724 219.45 836.118C211.816 842.512 204.181 848.906 188.925 848.9C173.65 848.888 166.016 842.485 158.383 836.083C150.75 829.681 143.118 823.28 127.848 823.273C112.516 823.267 104.914 829.615 97.2836 835.987C89.711 842.31 82.1109 848.657 66.9 848.838H66.6C65.6766 849.588 64.8266 850.3 64.0016 851V365.522H87.4906V345.692H64V335.784C64 294.902 67.9984 256.03 75.1453 220.881C80.4937 194.542 87.6406 170.302 96.125 148.948C102.484 132.942 109.594 118.547 117.203 106.102C128.623 87.4344 141.206 73.2406 153.627 64.1938C159.836 59.6203 165.984 56.3484 172.006 54.1984C178.028 52.05 183.902 51 189.95 51ZM128.025 365.522H171.858V345.692H128.025V365.522ZM230.295 365.522H274.128V345.692H230.295V365.522ZM332.566 365.522H376.398V345.692H332.566V365.522ZM434.85 365.522H478.683V345.692H434.85V365.522ZM824.342 205.5C815.095 166.478 801.801 132.766 786.283 107.153C775.961 90.0594 764.666 76.6406 753.37 67.3937C746.923 62.1094 740.501 58.1984 734.216 55.5109C727.006 52.45 720.022 51 712.848 51C706.789 51 700.88 52.025 694.844 54.1984C688.822 56.3484 682.673 59.6469 676.477 64.1938C664.044 73.2406 651.461 87.4344 640.053 106.102C632.444 118.547 625.322 132.942 618.961 148.948C610.478 170.302 603.342 194.542 597.983 220.881C590.823 256.03 586.825 294.902 586.837 335.784C586.825 382.716 592.109 427.022 601.381 466.056C610.603 505.091 623.897 538.803 639.417 564.392C649.737 581.484 661.033 594.93 672.316 604.152C678.775 609.438 685.197 613.373 691.495 616.047C698.692 619.097 705.664 620.545 712.848 620.57C718.909 620.57 724.806 619.52 730.855 617.372C736.876 615.198 743.023 611.923 749.248 607.377C761.667 598.305 774.237 584.136 785.658 565.442C793.267 553.022 800.375 538.628 806.748 522.611C815.22 501.244 822.367 477.005 827.716 450.664C834.875 415.528 838.861 376.656 838.861 335.786C838.886 288.841 833.6 244.522 824.342 205.5ZM752.933 359.175C751.222 366.372 748.734 372.881 745.373 378.48C743.1 382.216 740.426 385.564 737.078 388.325C735.153 389.9 733.003 391.275 730.581 392.3C727.844 393.463 724.758 394.162 721.597 394.162C718.936 394.162 716.311 393.663 713.912 392.812C711.512 391.939 709.339 390.737 707.391 389.314C703.492 386.441 700.469 382.791 697.969 378.719C696.295 375.981 694.845 373.033 693.608 369.884C691.945 365.698 690.622 361.177 689.648 356.353C688.336 349.931 687.636 343.02 687.636 335.788C687.648 327.466 688.548 319.569 690.273 312.372C691.973 305.175 694.447 298.678 697.82 293.067C700.095 289.344 702.769 285.983 706.117 283.222C708.042 281.659 710.203 280.284 712.614 279.261C715.35 278.086 718.436 277.386 721.597 277.386C724.258 277.386 726.883 277.886 729.281 278.748C731.681 279.611 733.855 280.809 735.805 282.234C739.703 285.108 742.714 288.756 745.225 292.842C746.9 295.578 748.348 298.514 749.586 301.664C751.248 305.85 752.572 310.384 753.547 315.195C754.858 321.619 755.558 328.541 755.558 335.788C755.558 344.08 754.633 351.978 752.933 359.175ZM583.766 526.906V620.569H641.041C632.22 610.847 624.084 599.853 616.602 587.656C615.643 586.09 614.334 584.032 612.784 581.594C604.455 568.494 589.159 544.436 583.766 526.906Z" fill="white"/>
</svg>
