<svg width="790" height="788" viewBox="0 0 790 788" fill="none" xmlns="http://www.w3.org/2000/svg">
<path d="M769.375 331.812H457.812V331.5H297.188L298.125 53.6874C298.125 41.4999 290.313 31.8125 280.625 31.5H271.875C262.188 31.5 254.063 41.5 254.063 53.375L253.125 348.688C253.125 348.688 253.125 348.687 253.125 349V357.75C253.125 362.438 255.313 366.5 258.75 369.625C261.875 373.062 265.938 375.25 270.625 375.25H274.688C274.688 375.25 274.687 375.25 275 375.25H278.75H279.688H766.875C779.063 375.25 789.062 367.437 789.062 357.437V348.688C788.75 339.938 780.313 332.75 769.375 331.812Z" fill="white"/>
<path d="M749.062 395.562H254.687C254.687 416.187 257.812 435.25 262.812 453.687C262.812 453.687 263.125 454.937 263.75 456.812H185.937C172.812 456.812 162.187 446.187 162.187 433.062V369.312H198.75C206.562 369.312 213.125 362.437 213.125 354.312V15.25C213.125 6.81246 206.875 0.25 198.75 0.25H15.3124C7.49992 0.25 0.9375 6.81246 0.9375 15.25L51.2499 354C51.2499 362.125 57.4998 369 65.6248 369H114.688V432.75C114.688 471.813 146.562 503.687 185.625 503.687H287.187C331.25 610.875 431.875 630.875 431.875 630.875C431.875 630.875 430.625 706.5 430.312 742.437H396.562V787.125H654.687V742.437H621.25C619.063 662.75 619.062 662.438 619.062 662.438C619.062 662.438 749.062 546.187 749.062 395.562Z" fill="white"/>
</svg>
