<svg width="903" height="903" viewBox="0 0 903 903" fill="none" xmlns="http://www.w3.org/2000/svg">
<path d="M222.98 812.42C223.883 833.983 241.626 851 263.205 851H639.056C660.634 851 678.378 833.983 679.281 812.42L706.122 245.805H196.139L222.98 812.42ZM536.152 386.542C536.152 377.513 543.473 370.191 552.506 370.191H578.661C587.687 370.191 595.014 377.511 595.014 386.542V710.263C595.014 719.293 587.693 726.614 578.661 726.614H552.506C543.477 726.614 536.152 719.297 536.152 710.263V386.542ZM421.702 386.542C421.702 377.513 429.022 370.191 438.053 370.191H464.208C473.235 370.191 480.559 377.511 480.559 386.542V710.263C480.559 719.293 473.241 726.614 464.208 726.614H438.053C429.024 726.614 421.702 719.297 421.702 710.263V386.542ZM307.247 386.542C307.247 377.513 314.568 370.191 323.598 370.191H349.755C358.784 370.191 366.107 377.511 366.107 386.542V710.263C366.107 719.293 358.786 726.614 349.755 726.614H323.598C314.57 726.614 307.247 719.297 307.247 710.263V386.542Z" fill="white"/>
<path d="M723.993 92.212H550.6V59.4312C550.6 54.7759 546.826 51 542.169 51H360.088C355.433 51 351.659 54.7759 351.659 59.4312V92.21H178.264C164.31 92.21 153 103.522 153 117.476V196.847H749.257V117.478C749.257 103.524 737.947 92.212 723.993 92.212Z" fill="white"/>
</svg>
