<svg width="903" height="903" viewBox="0 0 903 903" fill="none" xmlns="http://www.w3.org/2000/svg">
<path fill-rule="evenodd" clip-rule="evenodd" d="M390.755 78.0056H337.538C329.363 78.0056 322.748 71.8233 322.748 64.1821C322.748 56.541 329.363 50.3586 337.538 50.3586H392.762C393.059 43.69 393.282 36.674 393.282 29.1024C393.282 25.907 395.586 23.2673 398.41 23.2673H505.512C508.337 23.2673 510.641 25.907 510.641 29.1024C510.641 116.836 535.019 138.996 473.107 139.899V160.46H480.688C486.485 160.46 491.465 163.795 493.472 168.518L526.1 226.799H596.337C632.087 226.799 664.642 240.484 688.203 262.504C711.764 284.525 726.406 314.881 726.406 348.363V574.749C726.406 629.904 706.561 680.96 673.189 721.945C640.56 762.026 594.999 792.382 542.452 807.525L524.465 841.91C524.316 842.397 524.168 842.883 523.945 843.369C518.891 855.664 515.323 863.306 507.742 869.071C499.938 875.045 490.722 876.851 475.113 876.851H429.924C416.917 876.851 406.883 875.531 397.89 870.391C388.822 865.181 382.579 856.915 377.822 843.439L359.836 807.525C307.66 791.965 262.47 761.401 230.139 721.389C197.213 680.474 177.591 629.626 177.591 574.749V348.363C177.591 314.95 192.233 284.525 215.794 262.504C239.355 240.484 271.835 226.799 307.66 226.799H373.288L408.444 167.198C410.971 162.892 415.654 160.53 420.559 160.46H428.14V139.968C383.322 139.135 386.741 122.463 390.755 78.0056ZM314.2 304.878H586.378C600.945 304.878 614.175 310.435 623.763 319.396L624.581 320.23C633.648 329.121 639.297 341.138 639.297 354.337V564.885C639.297 613.441 618.04 657.62 583.776 689.643C549.513 721.667 502.316 741.534 450.289 741.534H444.343C394.025 741.534 348.241 722.292 315.092 691.311C281.943 660.329 261.355 617.539 261.355 570.511V354.267C261.355 340.722 267.301 328.357 276.889 319.396L276.964 319.326C286.551 310.365 299.707 304.878 314.2 304.878ZM472.363 186.44H428.66L404.802 226.869H495.032L472.363 186.44ZM586.378 330.719H314.2C307.288 330.719 300.97 333.358 296.437 337.596L296.362 337.665C291.829 341.903 289.004 347.807 289.004 354.267V570.372C289.004 610.245 306.47 646.575 334.64 672.902C362.809 699.23 401.606 715.554 444.343 715.554H450.289C494.587 715.554 534.945 698.604 564.155 671.235C593.364 643.936 611.574 606.216 611.574 564.815V354.267C611.574 348.015 608.972 342.389 604.736 338.151L604.141 337.596C599.607 333.428 593.29 330.719 586.378 330.719Z" fill="white"/>
</svg>
