<svg width="903" height="903" viewBox="0 0 903 903" fill="none" xmlns="http://www.w3.org/2000/svg">
<path fill-rule="evenodd" clip-rule="evenodd" d="M51 451.999C51 231.444 230.444 52 450.999 52C671.556 52 850.998 231.444 850.998 451.999C850.998 672.554 671.554 851.998 450.999 851.998C230.444 851.998 51 672.554 51 451.999ZM85.782 451.999C85.782 653.39 249.608 817.216 450.999 817.216C545.434 817.216 631.348 780.869 696.252 721.844L513.365 538.957H381.435C371.835 538.957 364.043 531.165 364.043 521.565V504.175H207.522C197.922 504.175 190.13 496.383 190.13 486.783V382.435C190.13 372.835 197.922 365.043 207.522 365.043H339.451L181.156 206.748C122.129 271.652 85.782 357.564 85.782 451.999ZM532.878 509.286L720.842 697.252C779.869 632.348 816.216 546.434 816.216 452.001C816.216 250.61 652.39 86.7837 451.033 86.8179C356.599 86.8179 270.686 123.165 205.782 182.192L532.878 509.286ZM537.957 365.009H624.913C692.042 365.009 746.652 419.617 746.652 486.745V591.093C746.652 600.693 738.86 608.485 729.26 608.485H688.496C683.871 608.485 679.452 606.675 676.183 603.406L647.383 574.606C644.148 571.337 642.304 566.919 642.304 562.293V521.527C642.304 511.927 634.513 504.135 624.913 504.135H584.145C579.52 504.135 575.101 502.326 571.832 499.057L432.702 359.927C427.728 354.952 426.233 347.474 428.946 340.97C429.863 338.746 431.579 337.168 433.284 335.599C433.392 335.499 433.5 335.4 433.607 335.301V260.658H394.547C390.616 269.144 384.181 276.832 375.068 282.78C372.181 284.692 368.876 285.597 365.607 285.597C361.12 285.597 356.667 283.892 353.294 280.518L296.424 223.649C292.042 219.266 290.338 212.937 291.903 206.919C293.468 200.971 298.059 196.275 303.973 194.572C312.078 192.276 320.6 191.094 329.295 191.094C360.078 191.094 385.33 205.458 394.721 225.876H507.313C516.67 205.46 541.956 191.094 572.739 191.094C611.765 191.094 642.304 214.016 642.304 243.268C642.304 272.519 611.765 295.442 572.739 295.442C541.956 295.442 516.704 281.077 507.313 260.66H468.391V330.225H520.565C530.165 330.225 537.957 338.017 537.957 347.617V365.009Z" fill="white"/>
</svg>
