<svg width="903" height="903" viewBox="0 0 903 903" fill="none" xmlns="http://www.w3.org/2000/svg">
<path fill-rule="evenodd" clip-rule="evenodd" d="M782.882 780.138C783.03 778.306 782.988 776.441 782.733 774.569L687.545 76.3741C685.604 62.1445 672.836 51 658.476 51H242.908C228.548 51 215.781 62.1445 213.84 76.3741L118.652 774.569C118.393 776.464 118.358 778.352 118.512 780.205C118.184 781.88 118 783.606 118 785.375V824.173C118 838.966 130.034 851 144.827 851H227.906C242.699 851 254.733 838.966 254.733 824.173V802.534H646.665V824.173C646.665 838.966 658.698 851 673.491 851H756.573C771.366 851 783.4 838.966 783.4 824.173V785.375C783.402 783.583 783.218 781.833 782.882 780.138ZM513.043 377.29L647.81 592.916C682.1 643.104 642.099 705.073 585.075 705.073H314.45C258.86 705.073 221.221 642.461 251.41 593.404C251.435 593.365 251.459 593.325 251.483 593.286L386.481 377.29C413.149 328.903 486.375 328.903 513.043 377.29ZM478.159 396.868C466.767 375.711 432.758 375.711 421.365 396.868C421.161 397.247 420.944 397.62 420.716 397.986L285.444 614.421C272.393 635.722 288.873 665.073 314.45 665.073H585.075C614.493 665.073 628.554 635.372 614.637 615.27C614.459 615.013 614.287 614.751 614.121 614.486L478.808 397.986C478.58 397.62 478.363 397.247 478.159 396.868ZM477.262 454.573C477.262 439.385 464.95 427.073 449.762 427.073C434.574 427.073 422.262 439.385 422.262 454.573V508.698C422.262 523.886 434.574 536.198 449.762 536.198C464.95 536.198 477.262 523.886 477.262 508.698V454.573ZM449.762 630.948C447.056 630.948 441.643 630.948 438.937 628.242C437.584 626.889 436.231 626.213 434.878 625.536C433.524 624.859 432.171 624.183 430.818 622.83C425.406 617.417 422.699 612.005 422.699 603.886C422.699 595.767 425.406 590.355 430.818 584.942C433.524 582.236 436.231 579.53 438.937 579.53C449.762 574.117 460.587 576.823 468.706 584.942C474.118 590.355 476.824 595.767 476.824 603.886V609.299C476.824 610.449 476.824 611.11 476.617 611.698C476.336 612.493 475.674 613.155 474.118 614.711C474.118 616.064 473.442 616.741 472.765 617.417C472.089 618.094 471.412 618.77 471.412 620.124L468.706 622.83C463.293 628.242 457.881 630.948 449.762 630.948ZM315.702 142C309.074 142 303.702 147.373 303.702 154V180C303.702 186.627 309.074 192 315.702 192H586.702C593.329 192 598.702 186.627 598.702 180V154C598.702 147.373 593.329 142 586.702 142H315.702Z" fill="white"/>
</svg>
